<svg width="189" height="119" viewBox="0 0 189 119" fill="none" xmlns="http://www.w3.org/2000/svg">
<g clip-path="url(#clip0)">
<rect x="0.5" y="7.5" width="79" height="47" rx="1.5" fill="white" fill-opacity="0.55" stroke="#B0BEC5"/>
<rect x="103.5" y="7.5" width="79" height="47" rx="1.5" fill="white" fill-opacity="0.55" stroke="#3F3D56"/>
<rect x="103.5" y="71.5" width="79" height="47" rx="1.5" fill="white" fill-opacity="0.55" stroke="#3F3D56"/>
<rect x="0.5" y="71.5" width="79" height="47" rx="1.5" fill="white" fill-opacity="0.55" stroke="#3F3D56"/>
<path d="M57.6957 23.2657H43.7336C43.4773 23.2657 43.2314 23.3676 43.0501 23.5489C42.8689 23.7301 42.767 23.976 42.767 24.2324C42.767 24.4887 42.8689 24.7346 43.0501 24.9158C43.2314 25.0971 43.4773 25.199 43.7336 25.199H57.6957C57.9521 25.199 58.1979 25.0971 58.3792 24.9158C58.5605 24.7346 58.6623 24.4887 58.6623 24.2324C58.6623 23.976 58.5605 23.7301 58.3792 23.5489C58.1979 23.3676 57.9521 23.2657 57.6957 23.2657Z" fill="#B0BEC5"/>
<path d="M71.3055 29.3876H43.5489C43.1171 29.3876 42.767 29.8215 42.767 30.3542C42.767 30.8869 43.1171 31.3208 43.5489 31.3208H71.3055C71.7373 31.3208 72.0874 30.8869 72.0874 30.3542C72.0874 29.8215 71.7373 29.3876 71.3055 29.3876Z" fill="#B0BEC5"/>
<path d="M71.3055 35.657H43.5489C43.1171 35.657 42.767 36.0909 42.767 36.6236C42.767 37.1563 43.1171 37.5902 43.5489 37.5902H71.3055C71.7373 37.5902 72.0874 37.1563 72.0874 36.6236C72.0874 36.0909 71.7373 35.657 71.3055 35.657Z" fill="#B0BEC5"/>
<path d="M33.0794 46.0749H9.02165C8.42369 46.0742 7.85041 45.8364 7.42758 45.4135C7.00476 44.9907 6.76692 44.4174 6.76624 43.8195V16.9693C6.76692 16.3713 7.00476 15.798 7.42758 15.3752C7.85041 14.9524 8.42369 14.7145 9.02165 14.7139H33.0794C33.6774 14.7145 34.2507 14.9524 34.6735 15.3752C35.0963 15.798 35.3341 16.3713 35.3348 16.9693V43.8195C35.3341 44.4174 35.0963 44.9907 34.6735 45.4135C34.2507 45.8364 33.6774 46.0742 33.0794 46.0749Z" fill="#B0BEC5"/>
<path d="M77.7581 15.4657C82.0289 15.4657 85.491 12.0036 85.491 7.73285C85.491 3.46212 82.0289 0 77.7581 0C73.4874 0 70.0253 3.46212 70.0253 7.73285C70.0253 12.0036 73.4874 15.4657 77.7581 15.4657Z" fill="#B0BEC5"/>
<path d="M160.371 23.2657H146.409C146.152 23.2657 145.907 23.3676 145.725 23.5489C145.544 23.7301 145.442 23.976 145.442 24.2324C145.442 24.4887 145.544 24.7346 145.725 24.9158C145.907 25.0971 146.152 25.199 146.409 25.199H160.371C160.627 25.199 160.873 25.0971 161.054 24.9158C161.236 24.7346 161.338 24.4887 161.338 24.2324C161.338 23.976 161.236 23.7301 161.054 23.5489C160.873 23.3676 160.627 23.2657 160.371 23.2657Z" fill="#3F3D56"/>
<path d="M173.981 29.3876H146.224C145.792 29.3876 145.442 29.8215 145.442 30.3542C145.442 30.8869 145.792 31.3208 146.224 31.3208H173.981C174.413 31.3208 174.763 30.8869 174.763 30.3542C174.763 29.8215 174.413 29.3876 173.981 29.3876Z" fill="#3F3D56"/>
<path d="M173.981 35.657H146.224C145.792 35.657 145.442 36.0909 145.442 36.6236C145.442 37.1563 145.792 37.5902 146.224 37.5902H173.981C174.413 37.5902 174.763 37.1563 174.763 36.6236C174.763 36.0909 174.413 35.657 173.981 35.657Z" fill="#3F3D56"/>
<path d="M135.755 46.0749H111.697C111.099 46.0742 110.526 45.8364 110.103 45.4135C109.68 44.9907 109.442 44.4174 109.441 43.8195V16.9693C109.442 16.3713 109.68 15.798 110.103 15.3752C110.526 14.9524 111.099 14.7145 111.697 14.7139H135.755C136.352 14.7145 136.926 14.9524 137.349 15.3752C137.771 15.798 138.009 16.3713 138.01 16.9693V43.8195C138.009 44.4174 137.771 44.9907 137.349 45.4135C136.926 45.8364 136.352 46.0742 135.755 46.0749Z" fill="#FB8C00"/>
<path d="M180.433 15.4657C184.704 15.4657 188.166 12.0036 188.166 7.73285C188.166 3.46212 184.704 0 180.433 0C176.162 0 172.7 3.46212 172.7 7.73285C172.7 12.0036 176.162 15.4657 180.433 15.4657Z" fill="#FB8C00"/>
<path d="M179.999 10.8632C179.788 10.8636 179.582 10.7954 179.414 10.6689L179.403 10.661L177.201 8.97475C177.098 8.8967 177.013 8.79925 176.948 8.68796C176.883 8.57668 176.841 8.45375 176.824 8.32622C176.807 8.19869 176.816 8.06906 176.849 7.94474C176.882 7.82042 176.939 7.70386 177.018 7.60173C177.096 7.4996 177.194 7.41391 177.305 7.34955C177.416 7.2852 177.539 7.24345 177.667 7.22669C177.794 7.20993 177.924 7.2185 178.048 7.25189C178.173 7.28529 178.289 7.34286 178.391 7.42131L179.818 8.5152L183.189 4.11858C183.267 4.0166 183.365 3.93103 183.476 3.86674C183.587 3.80245 183.71 3.76071 183.837 3.74389C183.965 3.72707 184.094 3.73551 184.218 3.76873C184.342 3.80195 184.459 3.85929 184.561 3.93748L184.54 3.96594L184.561 3.9379C184.767 4.09599 184.902 4.32921 184.936 4.58641C184.969 4.8436 184.9 5.10376 184.742 5.30981L180.777 10.4813C180.685 10.6005 180.567 10.6969 180.432 10.7631C180.297 10.8293 180.149 10.8636 179.999 10.8632Z" fill="white"/>
<path d="M57.6957 87.2766H43.7336C43.4773 87.2766 43.2314 87.3785 43.0501 87.5597C42.8689 87.741 42.767 87.9869 42.767 88.2432C42.767 88.4996 42.8689 88.7455 43.0501 88.9267C43.2314 89.108 43.4773 89.2099 43.7336 89.2099H57.6957C57.9521 89.2099 58.1979 89.108 58.3792 88.9267C58.5605 88.7455 58.6623 88.4996 58.6623 88.2432C58.6623 87.9869 58.5605 87.741 58.3792 87.5597C58.1979 87.3785 57.9521 87.2766 57.6957 87.2766Z" fill="#3F3D56"/>
<path d="M71.3055 93.3984H43.5489C43.1171 93.3984 42.767 93.8323 42.767 94.365C42.767 94.8978 43.1171 95.3316 43.5489 95.3316H71.3055C71.7373 95.3316 72.0874 94.8978 72.0874 94.365C72.0874 93.8323 71.7373 93.3984 71.3055 93.3984Z" fill="#3F3D56"/>
<path d="M71.3055 99.6678H43.5489C43.1171 99.6678 42.767 100.102 42.767 100.634C42.767 101.167 43.1171 101.601 43.5489 101.601H71.3055C71.7373 101.601 72.0874 101.167 72.0874 100.634C72.0874 100.102 71.7373 99.6678 71.3055 99.6678Z" fill="#3F3D56"/>
<path d="M33.0794 110.086H9.02165C8.42369 110.085 7.85041 109.847 7.42758 109.424C7.00476 109.002 6.76692 108.428 6.76624 107.83V80.9801C6.76692 80.3822 7.00476 79.8089 7.42758 79.3861C7.85041 78.9632 8.42369 78.7254 9.02165 78.7247H33.0794C33.6774 78.7254 34.2507 78.9632 34.6735 79.3861C35.0963 79.8089 35.3341 80.3822 35.3348 80.9801V107.83C35.3341 108.428 35.0963 109.002 34.6735 109.424C34.2507 109.847 33.6774 110.085 33.0794 110.086Z" fill="#FB8C00"/>
<path d="M77.7581 79.4766C82.0289 79.4766 85.491 76.0145 85.491 71.7437C85.491 67.473 82.0289 64.0109 77.7581 64.0109C73.4874 64.0109 70.0253 67.473 70.0253 71.7437C70.0253 76.0145 73.4874 79.4766 77.7581 79.4766Z" fill="#FB8C00"/>
<path d="M77.3234 74.874C77.1126 74.8744 76.9073 74.8062 76.7386 74.6797L76.7281 74.6719L74.5257 72.9856C74.4234 72.9076 74.3375 72.8101 74.2729 72.6988C74.2083 72.5875 74.1663 72.4646 74.1493 72.3371C74.1323 72.2095 74.1406 72.0799 74.1738 71.9556C74.2069 71.8313 74.2643 71.7147 74.3425 71.6126C74.4208 71.5105 74.5184 71.4248 74.6298 71.3604C74.7412 71.2961 74.8642 71.2543 74.9918 71.2375C75.1194 71.2208 75.249 71.2293 75.3732 71.2627C75.4975 71.2961 75.6139 71.3537 75.7159 71.4322L77.1425 72.526L80.5138 68.1294C80.5919 68.0275 80.6895 67.9419 80.8007 67.8776C80.912 67.8133 81.0348 67.7716 81.1622 67.7548C81.2896 67.7379 81.4191 67.7464 81.5432 67.7796C81.6673 67.8128 81.7837 67.8702 81.8857 67.9483L81.8647 67.9768L81.8862 67.9488C82.0919 68.1068 82.2265 68.3401 82.2604 68.5973C82.2944 68.8545 82.2249 69.1146 82.0673 69.3207L78.1019 74.4921C78.0102 74.6113 77.8923 74.7077 77.7573 74.774C77.6222 74.8402 77.4738 74.8744 77.3234 74.874Z" fill="white"/>
<path d="M160.371 87.2766H146.409C146.152 87.2766 145.907 87.3785 145.725 87.5597C145.544 87.741 145.442 87.9869 145.442 88.2432C145.442 88.4996 145.544 88.7455 145.725 88.9267C145.907 89.108 146.152 89.2099 146.409 89.2099H160.371C160.627 89.2099 160.873 89.108 161.054 88.9267C161.236 88.7455 161.338 88.4996 161.338 88.2432C161.338 87.9869 161.236 87.741 161.054 87.5597C160.873 87.3785 160.627 87.2766 160.371 87.2766Z" fill="#3F3D56"/>
<path d="M173.981 93.3984H146.224C145.792 93.3984 145.442 93.8323 145.442 94.365C145.442 94.8978 145.792 95.3316 146.224 95.3316H173.981C174.413 95.3316 174.763 94.8978 174.763 94.365C174.763 93.8323 174.413 93.3984 173.981 93.3984Z" fill="#3F3D56"/>
<path d="M173.981 99.6678H146.224C145.792 99.6678 145.442 100.102 145.442 100.634C145.442 101.167 145.792 101.601 146.224 101.601H173.981C174.413 101.601 174.763 101.167 174.763 100.634C174.763 100.102 174.413 99.6678 173.981 99.6678Z" fill="#3F3D56"/>
<path d="M135.755 110.086H111.697C111.099 110.085 110.526 109.847 110.103 109.424C109.68 109.002 109.442 108.428 109.441 107.83V80.9801C109.442 80.3822 109.68 79.8089 110.103 79.3861C110.526 78.9632 111.099 78.7254 111.697 78.7247H135.755C136.352 78.7254 136.926 78.9632 137.349 79.3861C137.771 79.8089 138.009 80.3822 138.01 80.9801V107.83C138.009 108.428 137.771 109.002 137.349 109.424C136.926 109.847 136.352 110.085 135.755 110.086Z" fill="#FB8C00"/>
<path d="M180.433 79.4766C184.704 79.4766 188.166 76.0145 188.166 71.7437C188.166 67.473 184.704 64.0109 180.433 64.0109C176.162 64.0109 172.7 67.473 172.7 71.7437C172.7 76.0145 176.162 79.4766 180.433 79.4766Z" fill="#FB8C00"/>
<path d="M179.999 74.874C179.788 74.8744 179.582 74.8062 179.414 74.6797L179.403 74.6719L177.201 72.9856C177.098 72.9076 177.013 72.8101 176.948 72.6988C176.883 72.5875 176.841 72.4646 176.824 72.3371C176.807 72.2095 176.816 72.0799 176.849 71.9556C176.882 71.8313 176.939 71.7147 177.018 71.6126C177.096 71.5105 177.194 71.4248 177.305 71.3604C177.416 71.2961 177.539 71.2543 177.667 71.2375C177.794 71.2208 177.924 71.2293 178.048 71.2627C178.173 71.2961 178.289 71.3537 178.391 71.4322L179.818 72.526L183.189 68.1294C183.267 68.0275 183.365 67.9419 183.476 67.8776C183.587 67.8133 183.71 67.7716 183.837 67.7548C183.965 67.7379 184.094 67.7464 184.218 67.7796C184.342 67.8128 184.459 67.8702 184.561 67.9483L184.54 67.9768L184.561 67.9488C184.767 68.1068 184.902 68.3401 184.936 68.5973C184.969 68.8545 184.9 69.1146 184.742 69.3207L180.777 74.4921C180.685 74.6113 180.567 74.7077 180.432 74.774C180.297 74.8402 180.149 74.8744 179.999 74.874Z" fill="white"/>
</g>
<defs>
<clipPath id="clip0">
<rect width="188.166" height="119" fill="white"/>
</clipPath>
</defs>
</svg>
