<svg width="168" height="38" viewBox="0 0 168 38" fill="none" xmlns="http://www.w3.org/2000/svg">
<path d="M76.5469 7.25V22.7812C76.5365 24.3125 76.1979 25.6458 75.5312 26.7812C74.8646 27.9167 73.9219 28.7917 72.7031 29.4062C71.4948 30.0104 70.1042 30.3125 68.5312 30.3125C66.1354 30.3125 64.2135 29.6615 62.7656 28.3594C61.3281 27.0469 60.5833 25.2344 60.5312 22.9219V7.25H62.4375V22.6406C62.4375 24.5573 62.9844 26.0469 64.0781 27.1094C65.1719 28.1615 66.6562 28.6875 68.5312 28.6875C70.4062 28.6875 71.8854 28.1562 72.9688 27.0938C74.0625 26.0312 74.6094 24.5521 74.6094 22.6562V7.25H76.5469ZM83.8438 28.375H95.0781V30H81.9062V7.25H83.8438V28.375ZM109.906 8.89062H102.109V30H100.188V8.89062H92.4062V7.25H109.906V8.89062ZM115.938 30H114.016V7.25H115.938V30ZM124.672 7.25L133.062 27.3281L141.484 7.25H144.047V30H142.125V20.0938L142.281 9.9375L133.812 30H132.328L123.891 10.0156L124.047 20.0312V30H122.125V7.25H124.672ZM162.375 23.625H152.047L149.703 30H147.688L156.297 7.25H158.125L166.734 30H164.734L162.375 23.625ZM152.641 21.9844H161.766L157.203 9.59375L152.641 21.9844Z" fill="white"/>
<path fill-rule="evenodd" clip-rule="evenodd" d="M39.9709 10.5702C39.9112 10.4273 39.7717 10.3348 39.617 10.3348H37.5093L38.657 8.95037C38.752 8.83653 38.7711 8.67837 38.7083 8.54466C38.6455 8.41095 38.5106 8.32537 38.362 8.32537H15.2326L8.67361 2.10518C8.54643 1.98522 8.35336 1.96536 8.20625 2.05857L4.52643 4.36221L4.52336 4.36526L4.51953 4.36679L0.17315 7.21978C0.162424 7.22666 0.157061 7.23735 0.147101 7.24576C0.125649 7.26257 0.107261 7.28091 0.0904059 7.30154C0.0750829 7.31987 0.0628245 7.33821 0.0513322 7.35884C0.0390738 7.381 0.0306461 7.40316 0.0229846 7.42684C0.015323 7.45129 0.0107261 7.47574 0.00766152 7.50172C0.00689537 7.51471 0 7.5254 0 7.53916C0 7.55138 0.00536306 7.56055 0.00689537 7.57278C0.00919382 7.59799 0.0145569 7.62168 0.0222184 7.64689C0.0298799 7.6721 0.0383076 7.69579 0.0513322 7.71948C0.0566952 7.72941 0.0574614 7.74011 0.0635906 7.75004C0.0689537 7.75844 0.0789137 7.7615 0.0850429 7.76914C0.111858 7.80352 0.14327 7.83179 0.180046 7.85471C0.193836 7.86312 0.204563 7.87382 0.218353 7.88069C0.268919 7.90514 0.324082 7.92119 0.383842 7.92119H5.61743L6.79883 10.8605L6.80036 10.8628V10.8651L14.4864 29.2292L9.94925 33.3353C9.83203 33.4415 9.79219 33.608 9.84965 33.7555C9.90635 33.903 10.0489 34 10.2067 34H16.7389C16.7895 34 16.8393 33.9893 16.886 33.9702C16.9327 33.9511 16.9749 33.9228 17.0101 33.8877L20.444 30.4502C20.4486 30.4555 20.4501 30.4624 20.4555 30.4678L23.707 33.8808C23.7798 33.958 23.8756 33.9794 23.9867 34C29.8899 33.9671 38.8462 33.9373 39.2676 33.9809C39.3074 33.9939 39.348 34 39.3886 34C39.5197 34 39.6476 33.9335 39.7189 33.8182C39.9403 33.459 39.9387 33.4552 28.6265 22.2603L39.8874 10.9889C39.9977 10.8773 40.0299 10.7131 39.9709 10.5702ZM37.5483 9.08867L36.5163 10.3348H17.3518L16.0379 9.08867H37.5483ZM8.36178 2.86236L16.2409 10.3348H7.41329L5.20447 4.83898L8.36178 2.86236ZM1.66178 7.15636L4.54864 5.2615L5.3102 7.15636H1.66178ZM21.0102 29.9406C21.0002 29.9299 20.9864 29.9253 20.9757 29.9169L23.7201 27.1701V32.7844L21.0102 29.9406ZM38.5045 33.213C37.058 33.1916 33.464 33.1825 24.4862 33.2321V26.6513C24.4862 26.581 24.4617 26.5183 24.4288 26.461L28.0864 22.7997C31.6934 26.3701 36.7998 31.4519 38.5045 33.213ZM16.8722 32.9425L7.72894 11.0989H36.6006C36.6282 11.105 36.6558 11.1134 36.6834 11.1134C36.7056 11.1134 36.7263 11.1027 36.7485 11.0989H38.6945L16.8722 32.9425Z" fill="white"/>
</svg>
