<svg width="1056" height="269" viewBox="0 0 1056 269" fill="none" xmlns="http://www.w3.org/2000/svg">
<path d="M173.518 193.43H51.4988L23.8059 268.734H0L101.71 0H123.307L225.016 268.734H201.388L173.518 193.43ZM58.5166 174.05H166.323L112.414 27.6855L58.5166 174.05Z" fill="white"/>
<path d="M316.707 268.734H294V0H316.707V268.734Z" fill="white"/>
<path d="M488.707 268.734H466V0H488.707V268.734Z" fill="white"/>
<path d="M474.367 127V140.663H310V127L474.367 127Z" fill="white"/>
<path d="M970.63 268.98H949.953V108.961H970.63V268.98Z" fill="white"/>
<path d="M970.571 108.321L954.92 121.832L864 16.5112L879.651 2.99997L970.571 108.321Z" fill="white"/>
<path d="M968.49 121.361L952.65 108.071L1040.16 3.7804L1056 17.071L968.49 121.361Z" fill="white"/>
<path fill-rule="evenodd" clip-rule="evenodd" d="M667.959 1.9016C670.191 0.802109 672.622 0.160583 675.107 0.0151002H675.021C678.123 -0.109802 681.208 0.54175 683.993 1.91025L780.641 47.8006C785.678 50.1977 789.37 54.7581 790.629 60.1926L814.481 163.526C815.827 168.943 814.516 174.655 811.006 178.981L744.16 261.849C740.634 266.115 735.318 268.72 729.707 268.711H622.436C616.843 268.737 611.536 266.254 608 261.927L541.119 179.077C540.755 178.609 540.407 178.125 540.077 177.623C537.254 173.469 536.342 168.389 537.471 163.543L561.166 60.2965C562.426 54.862 566.1 50.3015 571.155 47.9044L667.959 1.9016ZM670.305 41.6048C670.131 38.2818 672.659 35.4347 675.994 35.201L676.072 35.2443C679.416 35.478 681.935 38.325 681.761 41.648V43.3788C681.596 45.222 681.336 47.0393 680.962 48.8565C680.403 52.3086 680.182 55.8067 680.302 59.3015C680.528 60.4697 681.214 61.4995 682.196 62.1745C682.201 62.2945 682.214 62.492 682.231 62.7331C682.27 63.3093 682.326 64.1345 682.326 64.7446C700.636 66.3888 717.721 74.6098 730.402 87.8499L732.6 86.2923C733.782 86.4941 734.998 86.3622 736.109 85.9115C738.862 83.7827 741.398 81.4029 743.691 78.7895C744.879 77.3771 746.146 76.0335 747.487 74.7656L748.773 73.7444C749.546 72.9677 750.524 72.4247 751.593 72.1781C752.663 71.9316 753.781 71.9916 754.818 72.3512C755.856 72.7112 756.77 73.3567 757.455 74.2128C758.14 75.069 758.568 76.1008 758.689 77.189C758.809 78.2773 758.619 79.3773 758.138 80.3619C757.658 81.3466 756.907 82.1755 755.973 82.7529L754.705 83.774C753.162 84.7965 751.561 85.7297 749.911 86.5692C746.871 88.2912 743.978 90.3075 741.312 92.5921C740.539 93.5007 740.148 94.6776 740.235 95.8632L738.185 97.7497C748.44 112.983 752.724 131.438 750.223 149.611L752.568 150.303C753.159 151.35 754.028 152.216 755.07 152.796C758.457 153.704 761.932 154.275 765.441 154.5C767.301 154.538 769.157 154.682 771 154.933L772.685 155.331C773.754 155.475 774.762 155.912 775.597 156.593C776.431 157.275 777.059 158.174 777.41 159.191C777.753 160.208 777.806 161.3 777.563 162.346C777.32 163.392 776.79 164.35 776.033 165.113C775.276 165.876 774.321 166.415 773.274 166.67C772.227 166.925 771.13 166.885 770.105 166.555H769.992C769.782 166.504 769.544 166.458 769.307 166.411C769.016 166.354 768.728 166.297 768.498 166.235C766.735 165.681 764.998 165.023 763.304 164.244C760.038 163.033 756.66 161.96 753.211 161.302C752.021 161.268 750.857 161.692 749.971 162.496L747.505 162.064C741.92 179.544 730.107 194.385 714.299 203.774C714.57 204.57 714.892 205.347 715.263 206.102C714.936 206.61 714.716 207.178 714.615 207.773C714.513 208.368 714.533 208.977 714.672 209.564C716.166 212.774 717.886 215.837 719.884 218.711C721.008 220.181 722.046 221.716 722.993 223.306L723.749 224.863C724.29 225.789 724.564 226.845 724.539 227.916C724.515 228.987 724.193 230.03 723.61 230.929C723.021 231.824 722.195 232.538 721.223 232.994C720.252 233.45 719.173 233.629 718.106 233.511C717.039 233.394 716.025 232.985 715.177 232.329C714.328 231.673 713.679 230.797 713.3 229.796L712.579 228.325C711.916 226.596 711.353 224.831 710.894 223.037C709.886 219.688 708.566 216.443 706.933 213.345C706.221 212.393 705.161 211.744 703.98 211.571L702.825 209.365C685.618 215.858 666.615 215.811 649.441 209.235L648.138 211.597C647.207 211.743 646.341 212.165 645.654 212.809C644.199 214.547 643.351 217.027 642.457 219.644C642.06 220.806 641.654 221.996 641.181 223.158C640.729 224.941 640.173 226.706 639.513 228.437L638.792 229.908C638.417 230.913 637.769 231.794 636.921 232.454C636.073 233.114 635.058 233.527 633.989 233.647C632.922 233.758 631.845 233.573 630.878 233.112C629.91 232.652 629.088 231.934 628.504 231.038C627.92 230.141 627.596 229.102 627.568 228.034C627.539 226.965 627.808 225.91 628.343 224.984L629.082 223.427C630.028 221.831 631.067 220.291 632.191 218.814C634.241 215.838 635.995 212.67 637.429 209.365C637.576 208.248 637.394 207.123 636.907 206.111L637.967 203.904C622.124 194.584 610.259 179.795 604.613 162.341L602.008 162.773C601.035 162.081 599.888 161.674 598.69 161.605C595.233 162.254 591.854 163.249 588.597 164.547C586.903 165.274 585.166 165.915 583.403 166.434L581.839 166.607H581.726C580.7 166.941 579.602 166.985 578.552 166.732C577.503 166.48 576.545 165.942 575.785 165.179C575.032 164.412 574.508 163.451 574.27 162.404C574.033 161.358 574.091 160.266 574.44 159.25C574.788 158.235 575.413 157.336 576.244 156.653C577.075 155.97 578.08 155.531 579.147 155.383H579.32L580.858 155.037C582.701 154.786 584.557 154.642 586.417 154.604C589.921 154.373 593.394 153.802 596.787 152.899C597.795 152.268 598.638 151.411 599.272 150.407L601.704 149.715C599.081 131.534 603.276 113.023 613.499 97.741L611.606 96.0103C611.539 94.8169 611.139 93.6659 610.45 92.6873C607.758 90.3335 604.857 88.3345 601.782 86.6297C600.131 85.7906 598.53 84.8574 596.987 83.8346L595.789 82.8827C593.044 80.9183 592.401 77.1194 594.364 74.3762C594.917 73.6973 595.623 73.1584 596.424 72.8035C597.226 72.4485 598.1 72.2876 598.976 72.3339C600.444 72.4031 601.851 72.931 602.998 73.8483L604.283 74.8694C605.625 76.1371 606.892 77.4806 608.079 78.8934C610.442 81.4763 613.051 83.8239 615.87 85.9028C616.921 86.4653 618.155 86.5951 619.301 86.249L621.386 87.7201C631.557 76.9463 644.733 69.4695 659.204 66.2158C662.644 65.4369 666.135 64.9004 669.653 64.6062L669.783 62.1658C670.687 61.3697 671.347 60.3313 671.677 59.1803C671.828 55.6798 671.636 52.1728 671.104 48.7094C670.739 46.9008 670.461 45.0749 670.305 43.2316V41.6048ZM667.013 110.133L668.75 79.9059H668.732C666.674 80.1308 664.624 80.4597 662.592 80.8924C651.759 83.3174 641.823 88.7094 633.902 96.4603L658.787 114.027C660.299 115.126 662.305 115.395 663.999 114.495C665.692 113.595 666.796 112.002 666.882 110.133H667.013ZM717.894 96.5555C708.479 87.374 696.31 81.5241 683.238 79.9059L684.958 110.098C684.984 112.037 686.113 113.802 687.876 114.633C689.639 115.464 691.724 115.221 693.244 114.01L717.894 96.5555ZM624.871 107.833C617.947 119.066 614.973 132.276 616.418 145.379L645.619 137.011V136.925C647.417 136.432 648.825 134.986 649.241 133.16C649.658 131.335 649.042 129.422 647.626 128.193V128.063L624.871 107.833ZM735.657 145.276C736.925 132.183 733.868 119.038 726.954 107.831L726.989 107.9L704.405 128.037C702.99 129.284 702.382 131.179 702.79 133.005C703.198 134.831 704.588 136.276 706.412 136.769V136.882L735.657 145.276ZM680.641 129.638H671.33L665.545 136.838L667.516 145.838L675.898 149.845L684.263 145.838L686.33 136.838L680.641 129.638ZM702.329 154.197C702.025 154.154 701.548 154.154 701.157 154.197L701.122 154.327C700.303 154.375 699.507 154.618 698.801 155.036C698.095 155.454 697.501 156.035 697.068 156.729C696.634 157.424 696.375 158.212 696.311 159.027C696.247 159.843 696.381 160.662 696.701 161.415L708.34 189.487C719.527 182.365 728.1 171.721 732.443 159.26L702.329 154.197ZM654.783 156.646C653.854 155.227 652.281 154.353 650.579 154.327L650.527 154.405C650.188 154.371 649.849 154.371 649.519 154.405L619.666 159.45C624.139 171.782 632.547 182.296 643.622 189.366L655.191 161.518V161.406C655.86 159.848 655.712 158.066 654.783 156.646ZM678.514 167.117C677.69 166.646 676.752 166.413 675.803 166.442L675.881 166.607C674.083 166.65 672.433 167.602 671.538 169.16L656.772 195.614C667.291 199.179 678.591 199.759 689.414 197.293L695.294 195.562L680.58 169.108H680.467C680.014 168.277 679.338 167.587 678.514 167.117Z" fill="white"/>
</svg>
