<svg width="167" height="32" viewBox="0 0 167 32" fill="none" xmlns="http://www.w3.org/2000/svg">
<path d="M76.5469 5.25V20.7812C76.5365 22.3125 76.1979 23.6458 75.5312 24.7812C74.8646 25.9167 73.9219 26.7917 72.7031 27.4062C71.4948 28.0104 70.1042 28.3125 68.5312 28.3125C66.1354 28.3125 64.2135 27.6615 62.7656 26.3594C61.3281 25.0469 60.5833 23.2344 60.5312 20.9219V5.25H62.4375V20.6406C62.4375 22.5573 62.9844 24.0469 64.0781 25.1094C65.1719 26.1615 66.6562 26.6875 68.5312 26.6875C70.4062 26.6875 71.8854 26.1562 72.9688 25.0938C74.0625 24.0312 74.6094 22.5521 74.6094 20.6562V5.25H76.5469Z" fill="white"/>
<path d="M83.8438 26.375H95.0781V28H81.9062V5.25H83.8438V26.375Z" fill="white"/>
<path d="M109.906 6.89062H102.109V28H100.188V6.89062H92.4062V5.25H109.906V6.89062Z" fill="white"/>
<path d="M115.938 28H114.016V5.25H115.938V28Z" fill="white"/>
<path d="M124.672 5.25L133.062 25.3281L141.484 5.25H144.047V28H142.125V18.0938L142.281 7.9375L133.812 28H132.328L123.891 8.01562L124.047 18.0312V28H122.125V5.25H124.672Z" fill="white"/>
<path d="M162.375 21.625H152.047L149.703 28H147.688L156.297 5.25H158.125L166.734 28H164.734L162.375 21.625ZM152.641 19.9844H161.766L157.203 7.59375L152.641 19.9844Z" fill="white"/>
<path fill-rule="evenodd" clip-rule="evenodd" d="M39.9709 8.57017C39.9112 8.42729 39.7717 8.33484 39.617 8.33484H37.5093L38.657 6.95037C38.752 6.83653 38.7711 6.67837 38.7083 6.54466C38.6455 6.41095 38.5106 6.32537 38.362 6.32537H15.2326L8.67361 0.10518C8.54643 -0.0147766 8.35336 -0.0346421 8.20625 0.0585729L4.52643 2.36221L4.52336 2.36526L4.51953 2.36679L0.17315 5.21978C0.162424 5.22666 0.157061 5.23735 0.147101 5.24576C0.125649 5.26257 0.107261 5.28091 0.0904059 5.30154C0.0750829 5.31987 0.0628245 5.33821 0.0513322 5.35884C0.0390738 5.381 0.0306461 5.40316 0.0229846 5.42684C0.015323 5.45129 0.0107261 5.47574 0.00766152 5.50172C0.00689537 5.51471 0 5.5254 0 5.53916C0 5.55138 0.00536306 5.56055 0.00689537 5.57278C0.00919382 5.59799 0.0145569 5.62168 0.0222184 5.64689C0.0298799 5.6721 0.0383076 5.69579 0.0513322 5.71948C0.0566952 5.72941 0.0574614 5.74011 0.0635906 5.75004C0.0689537 5.75844 0.0789137 5.7615 0.0850429 5.76914C0.111858 5.80352 0.14327 5.83179 0.180046 5.85471C0.193836 5.86312 0.204563 5.87382 0.218353 5.88069C0.268919 5.90514 0.324082 5.92119 0.383842 5.92119H5.61743L6.79883 8.86052L6.80036 8.86281V8.8651L14.4864 27.2292L9.94925 31.3353C9.83203 31.4415 9.79219 31.608 9.84965 31.7555C9.90635 31.903 10.0489 32 10.2067 32H16.7389C16.7895 32 16.8393 31.9893 16.886 31.9702C16.9327 31.9511 16.9749 31.9228 17.0101 31.8877L20.444 28.4502C20.4486 28.4555 20.4501 28.4624 20.4555 28.4678L23.707 31.8808C23.7798 31.958 23.8756 31.9794 23.9867 32C29.8899 31.9671 38.8462 31.9373 39.2676 31.9809C39.3074 31.9939 39.348 32 39.3886 32C39.5197 32 39.6476 31.9335 39.7189 31.8182C39.9403 31.459 39.9387 31.4552 28.6265 20.2603L39.8874 8.98888C39.9977 8.87733 40.0299 8.71305 39.9709 8.57017ZM37.5483 7.08867L36.5163 8.33484H17.3518L16.0379 7.08867H37.5483ZM8.36178 0.862361L16.2409 8.33484H7.41329L5.20447 2.83898L8.36178 0.862361ZM1.66178 5.15636L4.54864 3.2615L5.3102 5.15636H1.66178ZM21.0102 27.9406C21.0002 27.9299 20.9864 27.9253 20.9757 27.9169L23.7201 25.1701V30.7844L21.0102 27.9406ZM38.5045 31.213C37.058 31.1916 33.464 31.1825 24.4862 31.2321V24.6513C24.4862 24.581 24.4617 24.5183 24.4288 24.461L28.0864 20.7997C31.6934 24.3701 36.7998 29.4519 38.5045 31.213ZM16.8722 30.9425L7.72894 9.0989H36.6006C36.6282 9.10501 36.6558 9.11342 36.6834 9.11342C36.7056 9.11342 36.7263 9.10272 36.7485 9.0989H38.6945L16.8722 30.9425Z" fill="white"/>
</svg>
