<svg xmlns="http://www.w3.org/2000/svg" xmlns:xlink="http://www.w3.org/1999/xlink" width="52" height="37" viewBox="0 0 52 37">
    <defs>
        <path id="a" d="M3.03.268A2.84 2.84 0 0 0 .192 3.095v30.536A2.84 2.84 0 0 0 3.03 36.46H48.4a2.84 2.84 0 0 0 2.838-2.828V3.095A2.84 2.84 0 0 0 48.4.268H3.03z"/>
    </defs>
    <g fill="none" fill-rule="evenodd">
        <path fill="#F2F2F2" d="M48.4 36.732H3.03a2.841 2.841 0 0 1-2.838-2.827V3.368A2.841 2.841 0 0 1 3.03.541H48.4a2.841 2.841 0 0 1 2.838 2.827v30.537a2.841 2.841 0 0 1-2.838 2.827"/>
        <path fill="#00579F" d="M18.96 24.595l1.928-11.88h3.083l-1.928 11.88zM33.219 13.006a7.642 7.642 0 0 0-2.766-.505c-3.044 0-5.188 1.618-5.2 3.93-.026 1.706 1.534 2.654 2.701 3.223 1.193.581 1.599.96 1.599 1.479-.013.796-.965 1.163-1.852 1.163-1.231 0-1.89-.19-2.893-.633l-.406-.19-.431 2.668c.723.328 2.055.619 3.438.631 3.235 0 5.34-1.592 5.366-4.057.013-1.352-.812-2.388-2.588-3.235-1.078-.543-1.738-.91-1.738-1.466.013-.505.558-1.023 1.776-1.023a5.25 5.25 0 0 1 2.296.455l.28.126.418-2.566zM41.122 12.716h-2.385c-.735 0-1.294.215-1.61.985l-4.58 10.894h3.234l.648-1.782h3.957c.089.418.368 1.782.368 1.782h2.855l-2.487-11.88zm-3.805 7.671l1.23-3.324c-.013.025.254-.695.406-1.138l.216 1.024s.583 2.844.71 3.438h-2.562zM16.385 12.716l-3.02 8.1-.33-1.643c-.558-1.895-2.308-3.955-4.262-4.979l2.766 10.389h3.26l4.846-11.867h-3.26z"/>
        <path fill="#00579F" d="M10.562 12.716h-4.96l-.052.24c3.87.985 6.433 3.361 7.486 6.217l-1.079-5.46c-.177-.757-.723-.972-1.395-.997"/>
        <g transform="translate(0 .273)">
            <mask id="b" fill="#fff">
                <use xlink:href="#a"/>
            </mask>
            <path d="M-14.014 42.585H67.45V30.333h-81.464zM-14.014 6.394H67.45V-5.86h-81.464z" mask="url(#b)"/>
        </g>
    </g>
</svg>
