<svg xmlns="http://www.w3.org/2000/svg" xmlns:xlink="http://www.w3.org/1999/xlink" width="52" height="37" viewBox="0 0 52 37">
    <defs>
        <path id="a" d="M0 .112h51.395v36.535H0z"/>
    </defs>
    <g fill="none" fill-rule="evenodd">
        <g transform="translate(0 .24)">
            <mask id="b" fill="#fff">
                <use xlink:href="#a"/>
            </mask>
            <path fill="#F2F2F2" d="M48.538 36.647H2.858A2.864 2.864 0 0 1 0 33.793V2.966A2.864 2.864 0 0 1 2.857.112h45.681a2.864 2.864 0 0 1 2.857 2.854v30.827a2.864 2.864 0 0 1-2.857 2.854" mask="url(#b)"/>
        </g>
        <path fill="#E71B26" d="M21.766 18.726a10.27 10.27 0 0 1 3.913-8.072 10.264 10.264 0 0 0-6.392-2.223c-5.691 0-10.305 4.61-10.305 10.295 0 5.686 4.614 10.295 10.305 10.295 2.416 0 4.635-.833 6.392-2.223a10.27 10.27 0 0 1-3.913-8.072"/>
        <path fill="#F36523" d="M21.766 18.726a10.27 10.27 0 0 0 3.913 8.072 10.27 10.27 0 0 0 3.913-8.072 10.27 10.27 0 0 0-3.913-8.072 10.27 10.27 0 0 0-3.913 8.072"/>
        <path fill="#FA9F1B" d="M32.071 8.431c-2.415 0-4.635.833-6.392 2.223a10.27 10.27 0 0 1 3.913 8.072 10.27 10.27 0 0 1-3.913 8.072 10.266 10.266 0 0 0 6.392 2.223c5.692 0 10.305-4.61 10.305-10.295S37.763 8.431 32.071 8.431"/>
    </g>
</svg>
