<svg xmlns="http://www.w3.org/2000/svg" xmlns:xlink="http://www.w3.org/1999/xlink" width="52" height="37" viewBox="0 0 52 37">
    <defs>
        <path id="a" d="M.01.112h51.396v36.535H.01z"/>
        <path id="c" d="M.213.301h41.7V8.84H.214z"/>
    </defs>
    <g fill="none" fill-rule="evenodd">
        <g transform="translate(0 .24)">
            <mask id="b" fill="#fff">
                <use xlink:href="#a"/>
            </mask>
            <path fill="#016FD0" d="M48.548 36.647H2.868A2.864 2.864 0 0 1 .01 33.793V2.966A2.864 2.864 0 0 1 2.867.112h45.681a2.864 2.864 0 0 1 2.858 2.854v30.827a2.864 2.864 0 0 1-2.858 2.854" mask="url(#b)"/>
        </g>
        <path fill="#FFF" d="M25.705 13.528c0-.623-.612-.677-.867-.677H23.31v1.263h1.319c.285 0 1.075.037 1.075-.586M37.28 12.964l-.813 2.071h1.653zM2.791 14.96h1.645L3.64 12.94z"/>
        <g transform="translate(9.524 21.03)">
            <mask id="d" fill="#fff">
                <use xlink:href="#c"/>
            </mask>
            <path fill="#FFF" d="M34.217 7.634h-2.965V6.226h2.964c.277 0 .705-.11.705-.523 0-.413-.39-.471-.644-.471-.404.005-.702 0-1.489 0-.786 0-1.744-.416-1.744-1.893 0-.887.709-1.82 2.243-1.82h3.061l-.632 1.404h-2.611c-.133 0-.534.124-.534.486s.328.486.452.486l1.844.022c.885 0 1.626.711 1.626 1.704 0 1.316-.8 2.013-2.276 2.013zm-3.615 0h-4.994V1.518h4.976v1.405h-3.398v.972h3.307v1.302h-3.325V6.23l3.434.005v1.4zm-7.111 0L21.666 5.4h-.552v2.234h-1.563V1.518h3.416c1.12 0 2.055.741 2.055 2.05 0 1.01-.645 1.503-1.54 1.828l1.924 2.238h-1.915zm-6.515-2.051H14.98v2.051h-1.537V1.518h3.29c.849 0 2.159.403 2.159 2.015 0 1.483-1.103 2.05-1.916 2.05zm-3.695 2.051h-1.952L9.947 5.61l-1.45 2.025H6.622l2.43-3.069-2.43-3.047h1.915l1.41 1.91 1.477-1.91h1.884l-2.494 3.069 2.467 3.047zM6.495 2.9H3.09v.995h3.307v1.248H3.089V6.23h3.406v1.403H1.534V1.518h4.961V2.9zm33.279 4.734h-2.965V6.226h2.964c.277 0 .704-.11.704-.523 0-.413-.388-.471-.643-.471-.404.005-.703 0-1.489 0-.786 0-1.744-.416-1.744-1.893 0-.887.71-1.82 2.242-1.82h3.071V.3H10.827l-.867 1.15L9.1.301H.213v8.534h8.893l.813-1.17.787 1.17 5.448.005V6.832h.469c.633.01 1.14.017 1.686-.25v2.253h3.646V7.453l1.093 1.382h16.878c1.504 0 1.988-.686 1.988-.686V6.453c-.285.775-1.015 1.181-2.14 1.181z" mask="url(#d)"/>
        </g>
        <path fill="#FFF" d="M10.47 17.598l-1.535-4.386v4.386H7.36v-6.029l2.429.015 1.424 3.848 1.338-3.95h2.403v6.116h-1.5l-.036-4.458-1.608 4.458H10.47zm-4.932 0l-.562-1.263h-2.72l-.567 1.263H.017l2.612-6.047h1.987l2.634 6.047H5.538zm10.445-6.115h4.888v1.386h-3.425v.99h3.342v1.253h-3.342v1.133h3.425v1.353h-4.888v-6.115zm8.602 0c2.512 0 2.638 1.336 2.638 2.018 0 .975-.668 1.751-1.608 1.886l2.014 2.21h-1.87l-1.888-2.155h-.551v2.156h-1.555l-.017-6.115h2.837zm3.287 6.115h1.493v-6.115h-1.493v6.115zm5.286-6.115H34.8v1.481h-1.612c-.533 0-1.546.244-1.546 1.576 0 1.47 1.037 1.752 1.422 1.752h.617l-.629 1.306h-.001c-1.667 0-2.903-.952-2.903-3.011 0-1.664.884-3.104 3.01-3.104zm5.125 0l2.615 6.115h-1.686l-.57-1.276h-2.735l-.552 1.276h-1.632l2.622-6.115h1.938zm4.703 0l2.412 3.81-.014-3.81h1.573v6.115h-1.87l-2.508-3.89v3.89H41.02l-.013-6.115h1.979zm-18.817 7.315l.01-1.334 1.066 1.334h5.34v-.73c.487.533 1.302.73 2.346.73h3.319l.569-1.258h.975l.556 1.258h5.205v-1.501l.989 1.501h3.7V10.27H44.45v1.597l-1.03-1.597h-3.497v2.152l-.942-2.152h-5.63c-1.718 0-2.332.532-2.784.839v-.839H11.845l-.669 1.606-.624-1.606H6.297v2.256l-.961-2.256H1.87L0 14.512v4.286h2.499l.564-1.29 1.078.06.562 1.29 8.095-.055 11.371-.005zM32.382 23.908h-1.78v1.28h1.817c.343 0 .614-.314.614-.64 0-.351-.235-.64-.65-.64M26.184 23.908h-1.699v1.463h1.7c.301 0 .735-.207.735-.736 0-.535-.438-.727-.736-.727M48.185 23.953c-.133 0-.533.125-.533.487s.327.486.452.486l1.843.021c.66 0 1.238.395 1.49 1.007v-3.276l-.64 1.275h-2.612z"/>
    </g>
</svg>
