<svg xmlns="http://www.w3.org/2000/svg" xmlns:xlink="http://www.w3.org/1999/xlink" width="52" height="37" viewBox="0 0 52 37">
    <defs>
        <path id="a" d="M0 .112h51.396v36.535H0z"/>
    </defs>
    <g fill="none" fill-rule="evenodd">
        <g transform="translate(0 .24)">
            <mask id="b" fill="#fff">
                <use xlink:href="#a"/>
            </mask>
            <path fill="#F2F2F2" d="M48.538 36.647H2.858A2.864 2.864 0 0 1 0 33.793V2.966A2.864 2.864 0 0 1 2.857.112h45.681a2.864 2.864 0 0 1 2.858 2.854v30.827a2.864 2.864 0 0 1-2.858 2.854" mask="url(#b)"/>
        </g>
        <path fill="#253B80" d="M22.203 28.145l.331-2.1-.737-.017h-3.52l2.446-15.496a.206.206 0 0 1 .069-.122.2.2 0 0 1 .13-.048h5.936c1.97 0 3.33.41 4.04 1.219.333.379.545.775.648 1.211.107.458.109 1.005.004 1.672l-.008.048v.428l.333.188c.28.149.503.319.674.514.285.324.469.736.547 1.225.08.502.053 1.1-.078 1.777-.152.78-.397 1.458-.729 2.013a4.147 4.147 0 0 1-1.155 1.264c-.44.312-.964.55-1.555.701a7.769 7.769 0 0 1-1.944.225h-.462c-.33 0-.652.118-.903.331-.253.218-.42.515-.471.84l-.035.189-.584 3.701-.027.136c-.007.043-.02.065-.037.08a.098.098 0 0 1-.06.021h-2.853z"/>
        <path fill="#179BD7" d="M32.19 14.562c-.017.113-.038.229-.06.347-.783 4.015-3.461 5.402-6.882 5.402h-1.741a.845.845 0 0 0-.836.716l-.892 5.65-.252 1.6a.445.445 0 0 0 .44.515h3.088a.744.744 0 0 0 .735-.626l.03-.156.581-3.687.038-.203a.743.743 0 0 1 .734-.627h.462c2.992 0 5.335-1.214 6.02-4.726.286-1.467.137-2.692-.62-3.554a2.951 2.951 0 0 0-.845-.651"/>
        <path fill="#222D65" d="M31.371 14.236a6.137 6.137 0 0 0-.76-.169 9.694 9.694 0 0 0-1.536-.112h-4.653a.738.738 0 0 0-.733.627l-.99 6.262-.028.183a.845.845 0 0 1 .836-.715h1.741c3.42 0 6.099-1.388 6.881-5.402a9.05 9.05 0 0 0 .061-.348 4.172 4.172 0 0 0-.819-.326"/>
        <path fill="#253B80" d="M23.69 14.582a.738.738 0 0 1 .732-.626h4.653c.551 0 1.066.036 1.535.112a6.149 6.149 0 0 1 .937.223c.231.076.446.166.644.271.233-1.484-.002-2.494-.805-3.409-.885-1.007-2.483-1.438-4.528-1.438h-5.935a.848.848 0 0 0-.839.716l-2.472 15.656a.51.51 0 0 0 .503.59h3.664l.92-5.833.99-6.262z"/>
    </g>
</svg>
