<svg xmlns="http://www.w3.org/2000/svg" width="161" height="50" viewBox="0 0 161 50">
    <g fill="none" fill-rule="evenodd">
        <path fill="#FFF" d="M0 0h49.5v49.5H0z"/>
        <path stroke="#253138" stroke-width="2.34" d="M1.17 1.17h47.16v47.16H1.17z"/>
        <path fill="#253138" fill-rule="nonzero" d="M32.197 23.441l-2.438-.541 1.896 2.707v8.391l6.499-5.414v-9.203l-2.979 1.083zM17.033 23.441l2.437-.541-1.896 2.707v8.391l-6.499-5.414v-9.203l2.98 1.083z"/>
        <path fill="#253138" d="M18.387 26.148l2.166-3.248 1.354.812h5.415l1.354-.812 2.167 3.248V38.33l-1.625 2.436-1.896 1.895h-5.415l-1.896-1.895-1.624-2.436z"/>
        <g fill="#FFF">
            <path d="M27.052 33.728l3.79-2.708v1.083l-3.79 2.708zM27.052 35.893l3.79-2.708v1.083l-3.79 2.708zM27.052 38.059l3.79-2.708v1.083l-3.79 2.708z"/>
        </g>
        <g fill="#FFF">
            <path d="M22.177 33.728l-3.79-2.708v1.083l3.79 2.708zM22.177 35.893l-3.79-2.708v1.083l3.79 2.708zM22.177 38.059l-3.79-2.708v1.083l3.79 2.708z"/>
        </g>
        <path fill="#253138" fill-rule="nonzero" d="M31.655 39.141l3.52-3.519v-3.519l-3.52 2.978zM17.574 39.141l-3.52-3.519v-3.519l3.52 2.978z"/>
        <path fill="#253138" d="M26.24 7.2v6.767l1.082-.541V7.2h.813l2.166 5.143-3.25 10.286h-1.895V7.2h1.083zm-4.333 6.226l1.083.541V7.2h1.083v15.43h-1.625l-3.52-10.287L21.094 7.2h.813v6.226z"/>
        <path fill="#253138" fill-rule="nonzero" d="M22.448 22.63l-11.643-4.332-1.625-6.767 10.019.812 3.52 10.286zM27.052 22.63l11.643-4.332 1.625-6.767-10.29.812-3.25 10.286zM30.843 11.531l5.686-.541-3.79-3.79h-3.792zM18.387 11.531L12.7 10.99l3.791-3.79h3.791zM62.46 39.182c0 .374.226.598.602.598h3.91c.414 0 .602-.224.602-.598V29.77h4.512c3.534 0 5.414-1.905 5.414-5.378v-9.114c0-3.51-1.88-5.378-5.414-5.378h-9.024c-.376 0-.602.224-.602.598v28.684zm5.114-14.342V14.83h3.308c1.016 0 1.505.523 1.505 1.494v7.022c0 .934-.49 1.494-1.505 1.494h-3.308zm31.592-9.562c0-3.51-1.88-5.378-5.414-5.378h-9.438c-.376 0-.601.224-.601.598v28.684c0 .374.225.598.601.598h3.91c.377 0 .602-.224.602-.598V29.77h2.595l2.519 9.487c.075.336.263.523.64.523h3.91c.413 0 .639-.224.526-.672l-2.594-9.786c1.804-.784 2.744-2.428 2.744-4.93v-9.114zm-10.34 9.562V14.83h3.723c.977 0 1.504.523 1.504 1.494v7.022c0 .971-.527 1.494-1.504 1.494h-3.723zm17.53-14.94c-.413 0-.601.224-.601.598v28.684c0 .374.188.598.601.598h3.91c.377 0 .602-.224.602-.598V10.498c0-.374-.225-.598-.601-.598h-3.91zm26.818 0c-.451 0-.715.224-.827.672l-4.174 18.6-4.174-18.6c-.113-.448-.376-.672-.827-.672h-4.963c-.489 0-.752.261-.752.747v28.386c0 .486.263.747.752.747h3.459c.489 0 .752-.261.752-.747V22.225h.263l3.723 16.883c.112.448.376.672.827.672h1.842c.452 0 .715-.224.828-.672l3.722-16.882h.263v16.807c0 .486.263.747.752.747h3.497c.489 0 .752-.261.752-.747V10.647c0-.486-.263-.747-.752-.747h-4.963zm27.306.598c0-.374-.15-.598-.602-.598h-13.837c-.338 0-.564.224-.564.598v28.684c0 .374.226.598.564.598h13.837c.452 0 .602-.224.602-.598v-3.735c0-.41-.15-.597-.602-.597h-9.4v-7.545h7.182c.376 0 .602-.224.602-.635v-3.698c0-.41-.226-.634-.602-.634h-7.182v-7.47h9.4c.452 0 .602-.262.602-.635v-3.735z"/>
    </g>
</svg>
