<svg width="199" height="119" viewBox="0 0 199 119" fill="none" xmlns="http://www.w3.org/2000/svg">
<g clip-path="url(#clip0)">
<rect x="12.5" y="1.5" width="49" height="28" rx="2.5" fill="white" fill-opacity="0.55" stroke="#B0BEC5" stroke-width="3"/>
<rect x="74.5" y="1.5" width="49" height="28" rx="2.5" fill="white" fill-opacity="0.55" stroke="#B0BEC5" stroke-width="3"/>
<rect x="137.5" y="1.5" width="49" height="28" rx="2.5" fill="white" fill-opacity="0.55" stroke="#B0BEC5" stroke-width="3"/>
<path d="M72.5862 83.6792C72.3567 83.6795 72.1367 83.7673 71.9744 83.9234C71.8121 84.0795 71.7208 84.2911 71.7206 84.5118V117.771C71.7208 117.992 71.8121 118.204 71.9744 118.36C72.1367 118.516 72.3567 118.604 72.5862 118.604H78.4567C78.6862 118.604 78.9062 118.516 79.0685 118.36C79.2308 118.204 79.3221 117.992 79.3223 117.771V84.5118C79.3221 84.2911 79.2308 84.0795 79.0685 83.9234C78.9062 83.7673 78.6862 83.6795 78.4567 83.6792H72.5862Z" fill="#3F3D56"/>
<path d="M121.404 83.6792C121.174 83.6795 120.954 83.7673 120.792 83.9234C120.63 84.0795 120.538 84.2911 120.538 84.5118V117.771C120.538 117.992 120.63 118.204 120.792 118.36C120.954 118.516 121.174 118.604 121.404 118.604H127.274C127.504 118.604 127.724 118.516 127.886 118.36C128.048 118.204 128.14 117.992 128.14 117.771V84.5118C128.14 84.2911 128.048 84.0795 127.886 83.9234C127.724 83.7673 127.504 83.6795 127.274 83.6792H121.404Z" fill="#3F3D56"/>
<path d="M148.83 57.2547L103.819 53.9125L139.729 59.8012L148.334 58.3688L148.83 57.2547Z" fill="#3F3D56"/>
<path d="M140.06 59.2772L148.665 57.8448L148.749 57.6551L149.161 57.6858L148.665 58.7998L140.06 60.2322L104.15 53.9125L114.792 55.1337L140.06 59.2772Z" fill="#673AB7"/>
<path d="M46.893 57.2547L1.88159 53.9125L37.7915 59.8012L46.3966 58.3688L46.893 57.2547Z" fill="#3F3D56"/>
<path d="M37.295 59.2772L45.9 57.8448L45.9847 57.6551L46.3966 57.6858L45.9 58.7998L37.295 60.2322L1.38513 53.9125L12.0269 55.1337L37.295 59.2772Z" fill="#673AB7"/>
<path d="M156.443 74.6026L152.636 74.7617L117.768 88.9105L115.772 90.518L109.445 95.611H89.5875L83.6069 90.518L81.3332 88.5811L47.8858 74.9209L44.9071 74.6026L54.8361 69.9871H54.889C57.1396 67.9324 76.6302 66.3265 100.344 66.3265C124.058 66.3265 143.548 67.9324 145.799 69.9871H146.017L156.443 74.6026Z" fill="#3F3D56"/>
<path d="M54.5634 70.223C54.6339 70.0322 54.6702 69.8312 54.6706 69.6286V62.0694C54.6706 61.5945 54.4744 61.139 54.1252 60.8031C53.776 60.4673 53.3024 60.2786 52.8086 60.2786H52.0526C52.6733 59.6761 53.0948 58.9104 53.2639 58.0779C53.4329 57.2454 53.3421 56.3834 53.0027 55.6005C52.6633 54.8176 52.0906 54.1488 51.3567 53.6784C50.6229 53.2079 49.7606 52.9569 48.8787 52.9569C47.9968 52.9569 47.1345 53.2079 46.4007 53.6784C45.6668 54.1488 45.0941 54.8176 44.7547 55.6005C44.4153 56.3834 44.3245 57.2454 44.4935 58.0779C44.6626 58.9104 45.0841 59.6761 45.7048 60.2786H44.9488C44.7043 60.2786 44.4622 60.3249 44.2363 60.4149C44.0103 60.5049 43.8051 60.6368 43.6322 60.8031C43.4593 60.9694 43.3221 61.1668 43.2285 61.3841C43.135 61.6014 43.0868 61.8343 43.0868 62.0694V69.6286C43.0867 69.9382 43.1705 70.2424 43.3299 70.5113C42.7679 70.606 42.2059 70.7089 41.6439 70.8278C41.3016 70.9014 40.9956 71.0852 40.7765 71.3487C40.5575 71.6122 40.4384 71.9397 40.4391 72.2771V74.073C40.4391 74.4667 40.6017 74.8443 40.8911 75.1227C41.1806 75.4011 41.5732 75.5575 41.9825 75.5575H59.4696V71.1011C57.8549 70.71 56.2163 70.4167 54.5634 70.223Z" fill="#3F3D56"/>
<path d="M158.051 70.8278C157.489 70.7089 156.927 70.606 156.365 70.5113C156.524 70.2424 156.608 69.9382 156.608 69.6287V62.0694C156.608 61.8343 156.56 61.6014 156.466 61.3841C156.373 61.1669 156.236 60.9694 156.063 60.8032C155.89 60.6369 155.684 60.505 155.459 60.415C155.233 60.325 154.991 60.2786 154.746 60.2786H153.99C154.611 59.6761 155.032 58.9104 155.201 58.0779C155.37 57.2454 155.28 56.3834 154.94 55.6005C154.601 54.8176 154.028 54.1488 153.294 53.6784C152.56 53.2079 151.698 52.9569 150.816 52.9569C149.934 52.9569 149.072 53.2079 148.338 53.6784C147.604 54.1488 147.032 54.8176 146.692 55.6005C146.353 56.3834 146.262 57.2454 146.431 58.0779C146.6 58.9104 147.021 59.6761 147.642 60.2786H146.886C146.642 60.2786 146.4 60.325 146.174 60.415C145.948 60.505 145.742 60.6369 145.57 60.8032C145.397 60.9694 145.26 61.1669 145.166 61.3841C145.072 61.6014 145.024 61.8343 145.024 62.0694V69.6287C145.025 69.8312 145.061 70.0322 145.131 70.223C143.479 70.4167 141.84 70.71 140.225 71.1012V75.5575H157.712C158.122 75.5575 158.514 75.4011 158.804 75.1227C159.093 74.8443 159.256 74.4668 159.256 74.0731V72.2771C159.256 71.9397 159.137 71.6122 158.918 71.3487C158.699 71.0852 158.393 70.9014 158.051 70.8278Z" fill="#3F3D56"/>
<path d="M152.802 57.2547L197.813 53.9125L161.904 59.8012L153.298 58.3688L152.802 57.2547Z" fill="#3F3D56"/>
<path d="M103.008 94.1785H96.025C95.7664 94.1785 95.5103 94.2275 95.2713 94.3227C95.0324 94.4178 94.8153 94.5574 94.6324 94.7333C94.4495 94.9092 94.3044 95.118 94.2055 95.3478C94.1065 95.5776 94.0555 95.8239 94.0555 96.0726V97.5364C94.0558 97.9209 94.1777 98.2962 94.4052 98.6124C94.6327 98.9286 94.9549 99.1707 95.3289 99.3065C95.0402 99.6398 94.8824 100.06 94.883 100.494V100.914C94.8829 101.213 94.9581 101.508 95.1022 101.773C95.2463 102.039 95.4549 102.266 95.7104 102.437V108.025H103.323V102.437C103.578 102.266 103.787 102.039 103.931 101.773C104.075 101.508 104.15 101.213 104.15 100.914V100.494C104.151 100.06 103.993 99.6398 103.704 99.3065C104.078 99.1708 104.4 98.9286 104.628 98.6124C104.855 98.2962 104.977 97.9209 104.977 97.5364V96.0727C104.977 95.8239 104.926 95.5776 104.827 95.3478C104.728 95.118 104.583 94.9092 104.401 94.7333C104.218 94.5574 104.001 94.4178 103.762 94.3227C103.523 94.2275 103.267 94.1785 103.008 94.1785Z" fill="#3F3D56"/>
<path d="M92.4202 107.234C92.1094 107.235 91.8113 107.354 91.5915 107.565C91.3716 107.776 91.2479 108.063 91.2476 108.362V117.396C91.2479 117.695 91.3716 117.982 91.5914 118.194C91.8113 118.405 92.1093 118.524 92.4202 118.524H106.613C106.924 118.524 107.222 118.405 107.442 118.193C107.661 117.982 107.785 117.695 107.785 117.396V108.362C107.785 108.063 107.661 107.776 107.441 107.565C107.222 107.354 106.924 107.235 106.613 107.234H92.4202Z" fill="#673AB7"/>
<path d="M115.772 90.5179L109.445 95.6109H89.5875L83.6069 90.5179H89.5544L89.8142 89.2717C89.8903 88.9052 90.0962 88.5753 90.3967 88.3383C90.6972 88.1012 91.0738 87.9716 91.4624 87.9714H108.067C108.456 87.9716 108.832 88.1012 109.133 88.3383C109.433 88.5753 109.639 88.9052 109.715 89.2717L109.975 90.5179H115.772Z" fill="#673AB7"/>
<path d="M99.5164 117.335C102.075 117.335 104.15 115.34 104.15 112.879C104.15 110.418 102.075 108.423 99.5164 108.423C96.9574 108.423 94.8829 110.418 94.8829 112.879C94.8829 115.34 96.9574 117.335 99.5164 117.335Z" fill="#3F3D56"/>
<path d="M99.5164 115.426C100.979 115.426 102.164 114.286 102.164 112.879C102.164 111.473 100.979 110.333 99.5164 110.333C98.0541 110.333 96.8687 111.473 96.8687 112.879C96.8687 114.286 98.0541 115.426 99.5164 115.426Z" fill="#E6E6E6"/>
<path d="M101.117 110.854C101.505 111.343 101.696 111.952 101.653 112.566C101.61 113.181 101.337 113.759 100.884 114.195C100.432 114.63 99.8301 114.893 99.1913 114.934C98.5524 114.975 97.9198 114.792 97.4108 114.418C97.639 114.708 97.9292 114.947 98.2616 115.12C98.5941 115.293 98.9612 115.395 99.3381 115.42C99.7151 115.444 100.093 115.391 100.447 115.264C100.801 115.136 101.122 114.937 101.389 114.68C101.657 114.423 101.863 114.114 101.996 113.774C102.129 113.434 102.184 113.07 102.158 112.708C102.132 112.345 102.026 111.992 101.846 111.672C101.667 111.352 101.418 111.073 101.117 110.854Z" fill="white"/>
<path d="M159.338 72.7261H40.5219V73.455H159.338V72.7261Z" fill="#E6E6E6"/>
<path d="M162.234 59.2772L153.629 57.8448L153.545 57.6551L153.133 57.6858L153.629 58.7998L162.234 60.2322L198.144 53.9125L187.502 55.1337L162.234 59.2772Z" fill="#673AB7"/>
<path d="M50.8644 57.2547L95.8758 53.9125L59.9659 59.8012L51.361 58.3688L50.8644 57.2547Z" fill="#3F3D56"/>
<path d="M60.4626 59.2772L51.8575 57.8448L51.773 57.6551L51.3611 57.6858L51.8575 58.7998L60.4626 60.2322L96.3723 53.9125L85.7305 55.1337L60.4626 59.2772Z" fill="#673AB7"/>
<path d="M106.384 89.3243H93.1454V91.8708H106.384V89.3243Z" fill="#E6E6E6"/>
<path d="M36.317 24.4578C36.3033 24.4578 36.2896 24.4574 36.2758 24.4567C36.1118 24.4478 35.9558 24.3854 35.8335 24.2799C35.7113 24.1745 35.6299 24.0321 35.6029 23.8763L33.2804 10.4739L31.2297 18.363C31.1906 18.5136 31.1002 18.6472 30.973 18.7427C30.8458 18.8383 30.6891 18.8901 30.5277 18.8901H27.6332C27.4413 18.8901 27.2572 18.8168 27.1215 18.6863C26.9858 18.5558 26.9095 18.3788 26.9095 18.1942C26.9095 18.0096 26.9858 17.8326 27.1215 17.7021C27.2572 17.5716 27.4413 17.4982 27.6332 17.4982H29.9627L32.7202 6.89013C32.7605 6.73492 32.8552 6.59782 32.9883 6.50189C33.1214 6.40597 33.2849 6.35709 33.4511 6.36347C33.6173 6.36985 33.7761 6.43112 33.9009 6.53694C34.0256 6.64277 34.1086 6.7867 34.136 6.9445L36.5028 20.6022L38.5154 13.8273C38.5579 13.6843 38.6468 13.5582 38.7692 13.4674C38.8916 13.3766 39.041 13.3259 39.1955 13.3227C39.35 13.3194 39.5016 13.3639 39.6279 13.4495C39.7543 13.5351 39.8488 13.6574 39.8977 13.7984L41.18 17.4982H43.553C43.7449 17.4982 43.929 17.5716 44.0647 17.7021C44.2004 17.8326 44.2766 18.0096 44.2766 18.1942C44.2766 18.3788 44.2004 18.5558 44.0647 18.6863C43.929 18.8168 43.7449 18.8901 43.553 18.8901H40.6585C40.5066 18.8901 40.3586 18.8442 40.2354 18.7588C40.1122 18.6734 40.02 18.5528 39.972 18.4143L39.2644 16.3727L37.0125 23.953C36.9693 24.0984 36.8781 24.2263 36.7526 24.3173C36.6271 24.4084 36.4742 24.4577 36.317 24.4578Z" fill="#673AB7"/>
<path d="M45.2195 20.2526C46.3953 20.2526 47.3485 19.3359 47.3485 18.205C47.3485 17.0742 46.3953 16.1575 45.2195 16.1575C44.0437 16.1575 43.0906 17.0742 43.0906 18.205C43.0906 19.3359 44.0437 20.2526 45.2195 20.2526Z" fill="#3F3D56"/>
<path d="M99.4285 16.5133C102.352 16.5133 104.722 14.234 104.722 11.4224C104.722 8.61072 102.352 6.33142 99.4285 6.33142C96.5051 6.33142 94.1351 8.61072 94.1351 11.4224C94.1351 14.234 96.5051 16.5133 99.4285 16.5133Z" fill="#673AB7"/>
<path d="M99.4285 17.3619H99.4285C101.3 17.3619 103.096 18.0771 104.419 19.3501C105.743 20.6231 106.486 22.3496 106.486 24.1499V24.4893H92.3707V24.1499C92.3707 22.3496 93.1143 20.6231 94.4379 19.3501C95.7615 18.0771 97.5567 17.3619 99.4285 17.3619Z" fill="#673AB7"/>
<path d="M88.6653 19.0588C90.7117 19.0588 92.3707 17.4633 92.3707 15.4952C92.3707 13.527 90.7117 11.9315 88.6653 11.9315C86.6189 11.9315 84.96 13.527 84.96 15.4952C84.96 17.4633 86.6189 19.0588 88.6653 19.0588Z" fill="#3F3D56"/>
<path d="M92.2942 20.6963C91.5821 20.0889 90.7027 19.6924 89.7617 19.5544C88.8208 19.4164 87.8585 19.5428 86.9905 19.9184C86.1225 20.294 85.3858 20.9028 84.8691 21.6716C84.3523 22.4403 84.0775 23.3363 84.0778 24.2517V24.4893H91.312V24.1499C91.3105 22.9346 91.6498 21.7415 92.2942 20.6963Z" fill="#3F3D56"/>
<path d="M110.192 19.0588C112.238 19.0588 113.897 17.4633 113.897 15.4952C113.897 13.527 112.238 11.9315 110.192 11.9315C108.145 11.9315 106.486 13.527 106.486 15.4952C106.486 17.4633 108.145 19.0588 110.192 19.0588Z" fill="#3F3D56"/>
<path d="M106.563 20.6963C107.275 20.0889 108.154 19.6924 109.095 19.5544C110.036 19.4164 110.999 19.5428 111.867 19.9184C112.735 20.294 113.471 20.9028 113.988 21.6716C114.505 22.4403 114.78 23.3363 114.779 24.2517V24.4893H107.545V24.1499C107.547 22.9346 107.207 21.7415 106.563 20.6963Z" fill="#3F3D56"/>
<path d="M161.056 24.8857C160.97 24.8857 160.885 24.8694 160.805 24.8377C160.725 24.8059 160.653 24.7594 160.592 24.7007C160.531 24.6421 160.482 24.5724 160.449 24.4958C160.416 24.4191 160.399 24.337 160.399 24.254V19.2005C160.4 19.0331 160.469 18.8728 160.592 18.7545C160.715 18.6363 160.882 18.5699 161.056 18.5699C161.23 18.5699 161.397 18.6363 161.52 18.7545C161.643 18.8728 161.713 19.0331 161.713 19.2005V24.254C161.713 24.337 161.696 24.4191 161.663 24.4958C161.63 24.5724 161.582 24.6421 161.521 24.7007C161.46 24.7594 161.387 24.8059 161.308 24.8377C161.228 24.8694 161.142 24.8857 161.056 24.8857Z" fill="#673AB7"/>
<path d="M163.355 22.359H158.757C158.583 22.359 158.416 22.2924 158.293 22.174C158.17 22.0555 158.101 21.8948 158.101 21.7273C158.101 21.5597 158.17 21.3991 158.293 21.2806C158.416 21.1621 158.583 21.0956 158.757 21.0956H163.355C163.529 21.0956 163.696 21.1621 163.82 21.2806C163.943 21.3991 164.012 21.5597 164.012 21.7273C164.012 21.8948 163.943 22.0555 163.82 22.174C163.696 22.2924 163.529 22.359 163.355 22.359Z" fill="#673AB7"/>
<path d="M169.923 10.3568C169.837 10.3568 169.752 10.3405 169.672 10.3087C169.592 10.277 169.52 10.2304 169.459 10.1718C169.398 10.1131 169.349 10.0435 169.316 9.96685C169.283 9.89021 169.266 9.80806 169.266 9.72511V7.19833H166.639C166.553 7.19833 166.467 7.18199 166.388 7.15024C166.308 7.1185 166.236 7.07196 166.175 7.01331C166.114 6.95465 166.065 6.88501 166.032 6.80837C165.999 6.73173 165.982 6.64959 165.982 6.56663C165.982 6.48368 165.999 6.40153 166.032 6.32489C166.065 6.24825 166.114 6.17861 166.175 6.11996C166.236 6.0613 166.308 6.01477 166.388 5.98302C166.467 5.95128 166.553 5.93494 166.639 5.93494H169.923C170.009 5.93494 170.095 5.95128 170.175 5.98302C170.254 6.01477 170.327 6.0613 170.388 6.11996C170.449 6.17861 170.497 6.24825 170.53 6.32489C170.563 6.40153 170.58 6.48368 170.58 6.56663V9.72511C170.58 9.80806 170.563 9.8902 170.53 9.96684C170.497 10.0435 170.449 10.1131 170.388 10.1718C170.327 10.2304 170.254 10.277 170.175 10.3087C170.095 10.3405 170.009 10.3568 169.923 10.3568Z" fill="#673AB7"/>
<path d="M165.953 11.0168C165.823 11.0168 165.696 10.9798 165.588 10.9104C165.48 10.841 165.396 10.7423 165.346 10.6269C165.296 10.5114 165.283 10.3844 165.309 10.2619C165.334 10.1394 165.396 10.0268 165.488 9.93846L169.459 6.11985C169.582 6.00165 169.749 5.93531 169.923 5.93542C170.097 5.93554 170.264 6.00209 170.387 6.12045C170.51 6.23882 170.579 6.39933 170.579 6.56672C170.579 6.73411 170.51 6.89471 170.388 7.01322L166.417 10.8318C166.356 10.8906 166.284 10.9372 166.204 10.9689C166.124 11.0007 166.039 11.0169 165.953 11.0168Z" fill="#673AB7"/>
<path d="M161.056 19.2006C159.822 19.2006 158.616 18.8486 157.59 18.1892C156.564 17.5298 155.764 16.5926 155.292 15.496C154.819 14.3994 154.696 13.1928 154.936 12.0287C155.177 10.8646 155.771 9.79532 156.644 8.95605C157.517 8.11678 158.629 7.54523 159.839 7.31368C161.049 7.08212 162.304 7.20096 163.444 7.65517C164.584 8.10938 165.559 8.87856 166.244 9.86544C166.93 10.8523 167.296 12.0126 167.296 13.1995C167.294 14.7905 166.636 16.3159 165.466 17.4409C164.297 18.5659 162.711 19.1988 161.056 19.2006ZM161.056 8.46176C160.082 8.46176 159.13 8.73962 158.319 9.26021C157.509 9.78079 156.878 10.5207 156.505 11.3864C156.132 12.2521 156.035 13.2047 156.225 14.1238C156.415 15.0428 156.884 15.887 157.573 16.5495C158.262 17.2121 159.14 17.6633 160.095 17.8462C161.051 18.029 162.041 17.9351 162.941 17.5765C163.841 17.218 164.611 16.6107 165.152 15.8316C165.693 15.0525 165.982 14.1365 165.982 13.1995C165.981 11.9434 165.461 10.7392 164.538 9.85098C163.614 8.96279 162.362 8.46319 161.056 8.46176Z" fill="#3F3D56"/>
<path d="M199 118.517H0V119H199V118.517Z" fill="#3F3D56"/>
</g>
<defs>
<clipPath id="clip0">
<rect width="199" height="119" fill="white"/>
</clipPath>
</defs>
</svg>
