<svg width="226" height="119" viewBox="0 0 226 119" fill="none" xmlns="http://www.w3.org/2000/svg">
<g clip-path="url(#clip0)">
<path d="M196.908 104.265C191.03 104.214 185.161 103.783 179.338 102.976C179.134 102.948 178.929 102.917 178.725 102.889L179.032 47.8391C179.235 47.6775 179.441 47.5184 179.649 47.3642C180.337 46.8503 181.045 46.3686 181.777 45.9264C185.305 43.801 189.436 42.828 192.285 43.803L192.33 43.8205C192.954 44.031 193.53 44.3626 194.025 44.7965C196.528 47.0196 196.111 51.5145 194.091 55.5936C198.096 51.935 203.149 49.0217 207.66 48.8004C212.06 48.5833 215.203 50.884 217.874 53.3793C217.962 53.4612 218.048 53.543 218.134 53.6249C218.178 53.6646 218.22 53.7067 218.264 53.7464C220.299 55.6932 222.306 57.963 222.063 61.2482C221.797 64.8513 218.779 68.8461 215.262 71.6471C211.747 74.4481 207.755 76.3094 203.859 78.196C199.965 80.0851 195.972 82.1289 192.643 85.1603C197.837 81.0545 203.745 77.7441 209.492 76.5213C215.239 75.2985 220.758 76.3747 223.465 80.0339C224.261 81.1448 224.78 82.4302 224.977 83.7827C225.004 83.9406 225.025 84.1009 225.044 84.2638C225.429 87.6512 224.258 91.6957 221.457 95.1368C218.374 98.9264 213.803 101.554 209.463 102.861C205.124 104.168 200.947 104.307 196.908 104.265Z" fill="#B0BEC5"/>
<path d="M178.918 68.2486L178.924 67.1959C179.133 66.8617 179.34 66.5259 179.544 66.1885C179.676 65.9796 179.803 65.7683 179.932 65.5569C182.064 62.0652 184.11 58.5517 186.068 55.0164C188.029 51.4843 189.898 47.9344 191.678 44.3668C191.719 44.2722 191.792 44.195 191.884 44.1487C191.976 44.1024 192.082 44.0898 192.182 44.1131C192.196 44.117 192.208 44.1229 192.219 44.1307C192.313 44.1804 192.352 44.2917 192.272 44.454C192.052 44.8916 191.833 45.3317 191.609 45.7693C189.799 49.3467 187.898 52.9087 185.908 56.4554C183.918 59.9996 181.84 63.5236 179.675 67.0275C179.63 67.1011 179.583 67.1749 179.538 67.2486C179.331 67.5827 179.125 67.9145 178.918 68.2486Z" fill="white"/>
<path d="M178.843 81.8212L178.846 81.1702C179.052 81.0234 179.257 80.8792 179.463 80.7323C184.3 77.283 189.137 73.8344 193.974 70.3865C201.893 64.7401 209.811 59.0955 217.73 53.4525C217.773 53.4191 217.822 53.3942 217.874 53.3793C218.049 53.331 218.152 53.4598 218.134 53.6249C218.124 53.6945 218.099 53.7611 218.061 53.8205C218.024 53.8798 217.974 53.9303 217.915 53.9688C213.474 57.1345 209.035 60.2993 204.597 63.4634C196.718 69.0803 188.839 74.6964 180.962 80.3118C180.461 80.669 179.959 81.0261 179.459 81.3833C179.253 81.5301 179.048 81.6769 178.843 81.8212Z" fill="white"/>
<path d="M182.623 96.3227C181.526 96.2895 180.446 96.2169 179.376 96.1221C179.172 96.1037 178.967 96.0853 178.763 96.0669L178.767 95.3839C178.971 95.4048 179.176 95.4257 179.38 95.4441C180.925 95.5884 182.488 95.6908 184.093 95.7047C188.543 95.7228 192.983 95.2892 197.345 94.4104C202.042 93.4762 206.649 92.135 211.113 90.4018C215.822 88.5826 220.377 86.3894 224.735 83.8431C224.806 83.7951 224.892 83.7738 224.977 83.7828C225.172 83.811 225.23 84.0701 225.044 84.2639C225.007 84.3021 224.966 84.3351 224.92 84.3618C224.378 84.6768 223.835 84.9861 223.29 85.2897C218.907 87.7421 214.336 89.8412 209.62 91.5671C205.141 93.211 200.527 94.4614 195.831 95.3043C191.475 96.0937 187.049 96.435 182.623 96.3227Z" fill="white"/>
<rect x="26.5" y="1" width="152" height="104" rx="1.5" fill="white" fill-opacity="0.55" stroke="#3F3D56"/>
<path d="M178.048 8.61682H26.6975V9.23143H178.048V8.61682Z" fill="#3F3D56"/>
<path d="M30.9217 6.45343C31.9401 6.45343 32.7656 5.62792 32.7656 4.60959C32.7656 3.59126 31.9401 2.76575 30.9217 2.76575C29.9034 2.76575 29.0779 3.59126 29.0779 4.60959C29.0779 5.62792 29.9034 6.45343 30.9217 6.45343Z" fill="#3F3D56"/>
<path d="M36.2227 6.45343C37.2411 6.45343 38.0666 5.62792 38.0666 4.60959C38.0666 3.59126 37.2411 2.76575 36.2227 2.76575C35.2044 2.76575 34.3789 3.59126 34.3789 4.60959C34.3789 5.62792 35.2044 6.45343 36.2227 6.45343Z" fill="#3F3D56"/>
<path d="M41.5238 6.45343C42.5421 6.45343 43.3676 5.62792 43.3676 4.60959C43.3676 3.59126 42.5421 2.76575 41.5238 2.76575C40.5055 2.76575 39.68 3.59126 39.68 4.60959C39.68 5.62792 40.5055 6.45343 41.5238 6.45343Z" fill="#3F3D56"/>
<path d="M140.857 22.8438H63.9324C63.0823 22.8438 62.267 22.5061 61.6659 21.905C61.0648 21.3039 60.7271 20.4886 60.7271 19.6386C60.7271 18.7885 61.0648 17.9732 61.6659 17.3721C62.267 16.771 63.0823 16.4333 63.9324 16.4333H140.857C141.707 16.4333 142.523 16.771 143.124 17.3721C143.725 17.9732 144.063 18.7885 144.063 19.6386C144.063 20.4886 143.725 21.3039 143.124 21.905C142.523 22.5061 141.707 22.8438 140.857 22.8438ZM63.9324 16.9265C63.2131 16.9265 62.5232 17.2122 62.0146 17.7208C61.506 18.2294 61.2203 18.9193 61.2203 19.6386C61.2203 20.3579 61.506 21.0477 62.0146 21.5563C62.5232 22.0649 63.2131 22.3507 63.9324 22.3507H140.857C141.577 22.3507 142.266 22.0649 142.775 21.5563C143.284 21.0477 143.569 20.3579 143.569 19.6386C143.569 18.9193 143.284 18.2294 142.775 17.7208C142.266 17.2122 141.577 16.9265 140.857 16.9265H63.9324Z" fill="#3F3D56"/>
<path d="M64.575 42.4449H57.6714C57.1483 42.4449 56.6466 42.2371 56.2767 41.8672C55.9068 41.4973 55.699 40.9956 55.699 40.4724C55.699 39.9493 55.9068 39.4476 56.2767 39.0777C56.6466 38.7078 57.1483 38.5 57.6714 38.5H64.575C65.0981 38.5 65.5998 38.7078 65.9697 39.0777C66.3396 39.4476 66.5474 39.9493 66.5474 40.4724C66.5474 40.9956 66.3396 41.4973 65.9697 41.8672C65.5998 42.2371 65.0981 42.4449 64.575 42.4449Z" fill="#B0BEC5"/>
<path d="M72.7113 49.1019H57.6714C57.1483 49.1019 56.6466 48.894 56.2767 48.5241C55.9068 48.1542 55.699 47.6525 55.699 47.1294C55.699 46.6063 55.9068 46.1046 56.2767 45.7347C56.6466 45.3648 57.1483 45.157 57.6714 45.157H72.7113C73.2344 45.157 73.7361 45.3648 74.106 45.7347C74.4759 46.1046 74.6837 46.6063 74.6837 47.1294C74.6837 47.6525 74.4759 48.1542 74.106 48.5241C73.7361 48.894 73.2344 49.1019 72.7113 49.1019Z" fill="#B0BEC5"/>
<path d="M65.8077 71.5383H58.9042C58.3811 71.5383 57.8794 71.3304 57.5095 70.9605C57.1396 70.5906 56.9318 70.0889 56.9318 69.5658C56.9318 69.0427 57.1396 68.541 57.5095 68.1711C57.8794 67.8012 58.3811 67.5934 58.9042 67.5934H65.8077C66.3309 67.5934 66.8326 67.8012 67.2025 68.1711C67.5724 68.541 67.7802 69.0427 67.7802 69.5658C67.7802 70.0889 67.5724 70.5906 67.2025 70.9605C66.8326 71.3304 66.3309 71.5383 65.8077 71.5383Z" fill="#B0BEC5"/>
<path d="M73.944 78.1954H58.9042C58.3811 78.1954 57.8794 77.9875 57.5095 77.6176C57.1396 77.2477 56.9318 76.746 56.9318 76.2229C56.9318 75.6998 57.1396 75.1981 57.5095 74.8282C57.8794 74.4583 58.3811 74.2505 58.9042 74.2505H73.944C74.4672 74.2505 74.9689 74.4583 75.3388 74.8282C75.7087 75.1981 75.9165 75.6998 75.9165 76.2229C75.9165 76.746 75.7087 77.2477 75.3388 77.6176C74.9689 77.9875 74.4672 78.1954 73.944 78.1954Z" fill="#B0BEC5"/>
<path d="M111.174 70.7986H104.27C103.747 70.7986 103.245 70.5908 102.876 70.2209C102.506 69.851 102.298 69.3493 102.298 68.8262C102.298 68.3031 102.506 67.8014 102.876 67.4315C103.245 67.0616 103.747 66.8538 104.27 66.8538H111.174C111.697 66.8538 112.199 67.0616 112.568 67.4315C112.938 67.8014 113.146 68.3031 113.146 68.8262C113.146 69.3493 112.938 69.851 112.568 70.2209C112.199 70.5908 111.697 70.7986 111.174 70.7986Z" fill="#B0BEC5"/>
<path d="M119.31 77.4556H104.27C103.747 77.4556 103.245 77.2478 102.876 76.8779C102.506 76.508 102.298 76.0063 102.298 75.4832C102.298 74.9601 102.506 74.4584 102.876 74.0885C103.245 73.7186 103.747 73.5107 104.27 73.5107H119.31C119.833 73.5107 120.335 73.7186 120.705 74.0885C121.075 74.4584 121.282 74.9601 121.282 75.4832C121.282 76.0063 121.075 76.508 120.705 76.8779C120.335 77.2478 119.833 77.4556 119.31 77.4556Z" fill="#B0BEC5"/>
<path d="M110.434 43.6775H103.531C103.007 43.6775 102.506 43.4697 102.136 43.0998C101.766 42.7299 101.558 42.2282 101.558 41.7051C101.558 41.182 101.766 40.6803 102.136 40.3104C102.506 39.9405 103.007 39.7327 103.531 39.7327H110.434C110.957 39.7327 111.459 39.9405 111.829 40.3104C112.199 40.6803 112.407 41.182 112.407 41.7051C112.407 42.2282 112.199 42.7299 111.829 43.0998C111.459 43.4697 110.957 43.6775 110.434 43.6775Z" fill="#B0BEC5"/>
<path d="M118.57 50.3345H103.531C103.007 50.3345 102.506 50.1267 102.136 49.7568C101.766 49.3869 101.558 48.8852 101.558 48.3621C101.558 47.839 101.766 47.3373 102.136 46.9674C102.506 46.5975 103.007 46.3896 103.531 46.3896H118.57C119.094 46.3896 119.595 46.5975 119.965 46.9674C120.335 47.3373 120.543 47.839 120.543 48.3621C120.543 48.8852 120.335 49.3869 119.965 49.7568C119.595 50.1267 119.094 50.3345 118.57 50.3345Z" fill="#B0BEC5"/>
<path d="M156.54 42.1983H149.636C149.113 42.1983 148.611 41.9905 148.242 41.6206C147.872 41.2507 147.664 40.749 147.664 40.2259C147.664 39.7027 147.872 39.201 148.242 38.8311C148.611 38.4612 149.113 38.2534 149.636 38.2534H156.54C157.063 38.2534 157.565 38.4612 157.934 38.8311C158.304 39.201 158.512 39.7027 158.512 40.2259C158.512 40.749 158.304 41.2507 157.934 41.6206C157.565 41.9905 157.063 42.1983 156.54 42.1983Z" fill="#B0BEC5"/>
<path d="M164.676 48.8553H149.636C149.113 48.8553 148.611 48.6475 148.242 48.2776C147.872 47.9077 147.664 47.406 147.664 46.8828C147.664 46.3597 147.872 45.858 148.242 45.4881C148.611 45.1182 149.113 44.9104 149.636 44.9104H164.676C165.199 44.9104 165.701 45.1182 166.071 45.4881C166.441 45.858 166.648 46.3597 166.648 46.8828C166.648 47.406 166.441 47.9077 166.071 48.2776C165.701 48.6475 165.199 48.8553 164.676 48.8553Z" fill="#B0BEC5"/>
<path d="M45.4912 51.1974C49.5763 51.1974 52.8879 47.8859 52.8879 43.8008C52.8879 39.7158 49.5763 36.4042 45.4912 36.4042C41.4062 36.4042 38.0946 39.7158 38.0946 43.8008C38.0946 47.8859 41.4062 51.1974 45.4912 51.1974Z" fill="#0097A7"/>
<path d="M48.943 47.1294H42.0395C41.8434 47.1292 41.6554 47.0512 41.5167 46.9125C41.378 46.7738 41.3 46.5858 41.2998 46.3897V41.2121C41.3 41.016 41.378 40.828 41.5167 40.6893C41.6554 40.5506 41.8434 40.4726 42.0395 40.4724H43.9829C44.1093 40.4719 44.2337 40.5041 44.3441 40.5657C44.4544 40.6274 44.547 40.7164 44.6129 40.8243L45.1549 41.7052H48.943C49.1391 41.7054 49.3271 41.7834 49.4658 41.9221C49.6045 42.0607 49.6825 42.2487 49.6827 42.4449V46.3897C49.6825 46.5858 49.6045 46.7738 49.4658 46.9125C49.3271 47.0512 49.1391 47.1292 48.943 47.1294ZM42.0395 40.9655C41.9741 40.9656 41.9115 40.9916 41.8653 41.0378C41.819 41.0841 41.793 41.1467 41.7929 41.2121V46.3897C41.793 46.4551 41.819 46.5178 41.8653 46.564C41.9115 46.6102 41.9741 46.6362 42.0395 46.6363H48.943C49.0084 46.6362 49.071 46.6102 49.1173 46.564C49.1635 46.5178 49.1895 46.4551 49.1896 46.3897V42.4449C49.1895 42.3795 49.1635 42.3168 49.1173 42.2706C49.071 42.2244 49.0084 42.1984 48.943 42.1983H44.8794L44.193 41.0828C44.171 41.0468 44.1401 41.0171 44.1033 40.9966C44.0665 40.9761 44.0251 40.9654 43.9829 40.9655H42.0395Z" fill="white"/>
<path d="M90.8573 52.4302C94.9423 52.4302 98.2539 49.1186 98.2539 45.0336C98.2539 40.9485 94.9423 37.637 90.8573 37.637C86.7722 37.637 83.4606 40.9485 83.4606 45.0336C83.4606 49.1186 86.7722 52.4302 90.8573 52.4302Z" fill="#0097A7"/>
<path d="M94.0625 49.7183H87.6521C87.456 49.7181 87.268 49.6401 87.1293 49.5014C86.9906 49.3628 86.9126 49.1748 86.9124 48.9787V41.0889C86.9126 40.8928 86.9906 40.7048 87.1293 40.5661C87.268 40.4275 87.456 40.3495 87.6521 40.3492H92.297C92.4655 40.3494 92.6289 40.4069 92.7604 40.5124L94.5257 41.931C94.6122 42.0001 94.682 42.0879 94.7299 42.1877C94.7777 42.2875 94.8024 42.3969 94.8022 42.5076V48.9787C94.8019 49.1748 94.7239 49.3628 94.5853 49.5014C94.4466 49.6401 94.2586 49.7181 94.0625 49.7183ZM87.6521 40.8424C87.5867 40.8424 87.5241 40.8684 87.4778 40.9147C87.4316 40.9609 87.4056 41.0235 87.4055 41.0889V48.9787C87.4056 49.044 87.4316 49.1067 87.4778 49.1529C87.5241 49.1991 87.5867 49.2251 87.6521 49.2252H94.0625C94.1279 49.2251 94.1905 49.1991 94.2367 49.1529C94.283 49.1067 94.309 49.044 94.3091 48.9787V42.5076C94.3091 42.4707 94.3009 42.4342 94.285 42.401C94.269 42.3677 94.2458 42.3385 94.217 42.3154L92.4513 40.8966C92.4076 40.8615 92.3531 40.8424 92.297 40.8424H87.6521Z" fill="white"/>
<path d="M92.8297 43.801H88.8849C88.8195 43.801 88.7568 43.775 88.7105 43.7287C88.6643 43.6825 88.6383 43.6198 88.6383 43.5544C88.6383 43.489 88.6643 43.4263 88.7105 43.3801C88.7568 43.3338 88.8195 43.3079 88.8849 43.3079H92.8297C92.8951 43.3079 92.9578 43.3338 93.0041 43.3801C93.0503 43.4263 93.0763 43.489 93.0763 43.5544C93.0763 43.6198 93.0503 43.6825 93.0041 43.7287C92.9578 43.775 92.8951 43.801 92.8297 43.801Z" fill="white"/>
<path d="M92.8297 45.2803H88.8849C88.8195 45.2803 88.7568 45.2544 88.7105 45.2081C88.6643 45.1619 88.6383 45.0992 88.6383 45.0338C88.6383 44.9684 88.6643 44.9057 88.7105 44.8594C88.7568 44.8132 88.8195 44.7872 88.8849 44.7872H92.8297C92.8951 44.7872 92.9578 44.8132 93.0041 44.8594C93.0503 44.9057 93.0763 44.9684 93.0763 45.0338C93.0763 45.0992 93.0503 45.1619 93.0041 45.2081C92.9578 45.2544 92.8951 45.2803 92.8297 45.2803Z" fill="white"/>
<path d="M92.8297 46.7596H88.8849C88.8195 46.7596 88.7568 46.7336 88.7105 46.6874C88.6643 46.6411 88.6383 46.5784 88.6383 46.513C88.6383 46.4476 88.6643 46.3849 88.7105 46.3387C88.7568 46.2925 88.8195 46.2665 88.8849 46.2665H92.8297C92.8951 46.2665 92.9578 46.2925 93.0041 46.3387C93.0503 46.3849 93.0763 46.4476 93.0763 46.513C93.0763 46.5784 93.0503 46.6411 93.0041 46.6874C92.9578 46.7336 92.8951 46.7596 92.8297 46.7596Z" fill="white"/>
<path d="M136.47 50.951C140.555 50.951 143.866 47.6394 143.866 43.5543C143.866 39.4693 140.555 36.1577 136.47 36.1577C132.385 36.1577 129.073 39.4693 129.073 43.5543C129.073 47.6394 132.385 50.951 136.47 50.951Z" fill="#0097A7"/>
<path d="M139.922 46.2665H133.018C132.822 46.2663 132.634 46.1883 132.495 46.0496C132.357 45.9109 132.279 45.7229 132.278 45.5268V41.5819C132.279 41.3858 132.357 41.1978 132.495 41.0592C132.634 40.9205 132.822 40.8425 133.018 40.8423H139.922C140.118 40.8425 140.306 40.9205 140.444 41.0592C140.583 41.1978 140.661 41.3858 140.661 41.5819V45.5268C140.661 45.7229 140.583 45.9109 140.444 46.0496C140.306 46.1883 140.118 46.2663 139.922 46.2665ZM133.018 41.3354C132.953 41.3355 132.89 41.3615 132.844 41.4077C132.797 41.4539 132.771 41.5166 132.771 41.5819V45.5268C132.771 45.5922 132.797 45.6549 132.844 45.7011C132.89 45.7473 132.953 45.7733 133.018 45.7734H139.922C139.987 45.7733 140.05 45.7473 140.096 45.7011C140.142 45.6549 140.168 45.5922 140.168 45.5268V41.5819C140.168 41.5166 140.142 41.4539 140.096 41.4077C140.05 41.3615 139.987 41.3355 139.922 41.3354H133.018Z" fill="white"/>
<path d="M136.47 44.2048C136.331 44.205 136.195 44.1664 136.078 44.0932L132.394 41.791C132.339 41.7563 132.299 41.701 132.285 41.6374C132.27 41.5737 132.282 41.5068 132.316 41.4514C132.351 41.3961 132.406 41.3567 132.47 41.3419C132.533 41.3272 132.6 41.3383 132.656 41.3728L136.339 43.675C136.378 43.6993 136.424 43.7122 136.47 43.7122C136.516 43.7122 136.561 43.6993 136.6 43.675L140.284 41.3728C140.339 41.3383 140.406 41.3272 140.47 41.3419C140.533 41.3567 140.589 41.3961 140.623 41.4514C140.658 41.5068 140.669 41.5737 140.655 41.6374C140.64 41.701 140.601 41.7563 140.545 41.791L136.862 44.0932C136.744 44.1664 136.608 44.2051 136.47 44.2048Z" fill="white"/>
<path d="M45.4912 80.2909C49.5763 80.2909 52.8879 76.9794 52.8879 72.8943C52.8879 68.8093 49.5763 65.4977 45.4912 65.4977C41.4062 65.4977 38.0946 68.8093 38.0946 72.8943C38.0946 76.9794 41.4062 80.2909 45.4912 80.2909Z" fill="#0097A7"/>
<path d="M48.943 75.6066H42.0395C41.8434 75.6064 41.6554 75.5284 41.5167 75.3897C41.378 75.251 41.3 75.063 41.2998 74.8669V70.922C41.3 70.7259 41.378 70.5379 41.5167 70.3993C41.6554 70.2606 41.8434 70.1826 42.0395 70.1824H48.943C49.1391 70.1826 49.3271 70.2606 49.4658 70.3993C49.6045 70.5379 49.6825 70.7259 49.6827 70.922V74.8669C49.6825 75.063 49.6045 75.251 49.4658 75.3897C49.3271 75.5284 49.1391 75.6064 48.943 75.6066ZM42.0395 70.6755C41.9741 70.6755 41.9115 70.7015 41.8652 70.7478C41.819 70.794 41.793 70.8567 41.7929 70.922V74.8669C41.793 74.9323 41.819 74.9949 41.8652 75.0412C41.9115 75.0874 41.9741 75.1134 42.0395 75.1135H48.943C49.0084 75.1134 49.0711 75.0874 49.1173 75.0412C49.1635 74.9949 49.1895 74.9323 49.1896 74.8669V70.922C49.1895 70.8567 49.1635 70.794 49.1173 70.7478C49.0711 70.7015 49.0084 70.6755 48.943 70.6755H42.0395Z" fill="white"/>
<path d="M47.8488 75.6065H42.8871C42.8006 75.6066 42.7155 75.5838 42.6405 75.5405C42.5656 75.4972 42.5033 75.435 42.46 75.36C42.4167 75.2851 42.394 75.2 42.394 75.1134C42.394 75.0269 42.4168 74.9418 42.4601 74.8669L43.9546 72.278C43.9979 72.2031 44.0602 72.1408 44.1351 72.0976C44.2101 72.0543 44.2951 72.0315 44.3817 72.0315C44.4683 72.0315 44.5533 72.0543 44.6283 72.0976C44.7032 72.1408 44.7655 72.2031 44.8088 72.278L45.774 73.95L46.3332 72.9814C46.3765 72.9064 46.4388 72.8441 46.5137 72.8009C46.5887 72.7576 46.6737 72.7348 46.7603 72.7348C46.8469 72.7348 46.9319 72.7576 47.0069 72.8009C47.0818 72.8441 47.1441 72.9064 47.1874 72.9814L48.2759 74.8669C48.3192 74.9418 48.342 75.0269 48.342 75.1134C48.342 75.2 48.3192 75.2851 48.2759 75.36C48.2326 75.435 48.1703 75.4972 48.0954 75.5405C48.0204 75.5838 47.9354 75.6066 47.8488 75.6065H47.8488ZM47.8488 75.1134L46.7603 73.2279L45.9876 74.5664C45.966 74.6039 45.9348 74.635 45.8974 74.6566C45.8599 74.6783 45.8173 74.6897 45.774 74.6897C45.7308 74.6897 45.6882 74.6783 45.6507 74.6566C45.6132 74.635 45.5821 74.6039 45.5605 74.5664L44.3818 72.5246L42.8872 75.1134H47.8488Z" fill="white"/>
<path d="M48.2033 72.1547C48.4757 72.1547 48.6964 71.9339 48.6964 71.6616C48.6964 71.3892 48.4757 71.1685 48.2033 71.1685C47.931 71.1685 47.7102 71.3892 47.7102 71.6616C47.7102 71.9339 47.931 72.1547 48.2033 72.1547Z" fill="white"/>
<path d="M91.3504 79.5512C95.4354 79.5512 98.747 76.2396 98.747 72.1546C98.747 68.0695 95.4354 64.7579 91.3504 64.7579C87.2653 64.7579 83.9537 68.0695 83.9537 72.1546C83.9537 76.2396 87.2653 79.5512 91.3504 79.5512Z" fill="#0097A7"/>
<path d="M91.3504 72.2781C90.9115 72.2781 90.4825 72.1479 90.1176 71.9041C89.7527 71.6603 89.4683 71.3137 89.3003 70.9082C89.1324 70.5028 89.0884 70.0566 89.174 69.6262C89.2597 69.1957 89.471 68.8003 89.7813 68.49C90.0917 68.1797 90.4871 67.9683 90.9175 67.8827C91.3479 67.7971 91.7941 67.841 92.1996 68.009C92.605 68.1769 92.9516 68.4614 93.1954 68.8263C93.4393 69.1912 93.5694 69.6202 93.5694 70.0591C93.5687 70.6474 93.3347 71.2114 92.9187 71.6274C92.5027 72.0434 91.9387 72.2774 91.3504 72.2781ZM91.3504 68.3332C91.0091 68.3332 90.6754 68.4344 90.3916 68.6241C90.1077 68.8137 89.8865 69.0832 89.7559 69.3986C89.6253 69.714 89.5911 70.061 89.6577 70.3958C89.7243 70.7306 89.8887 71.0381 90.13 71.2794C90.3714 71.5208 90.6789 71.6852 91.0137 71.7518C91.3485 71.8184 91.6955 71.7842 92.0109 71.6536C92.3262 71.5229 92.5958 71.3017 92.7854 71.0179C92.9751 70.7341 93.0763 70.4004 93.0763 70.0591C93.0758 69.6015 92.8938 69.1628 92.5702 68.8393C92.2467 68.5157 91.808 68.3337 91.3504 68.3332Z" fill="white"/>
<path d="M93.3228 76.4694H89.378C89.1492 76.4692 88.9298 76.3782 88.7681 76.2164C88.6063 76.0546 88.5153 75.8353 88.515 75.6065C88.515 74.8545 88.8137 74.1333 89.3455 73.6016C89.8772 73.0698 90.5984 72.7711 91.3504 72.7711C92.1024 72.7711 92.8236 73.0698 93.3553 73.6016C93.887 74.1333 94.1858 74.8545 94.1858 75.6065C94.1855 75.8353 94.0945 76.0546 93.9327 76.2164C93.7709 76.3782 93.5516 76.4692 93.3228 76.4694ZM91.3504 73.2642C90.7294 73.2649 90.134 73.5119 89.6949 73.951C89.2558 74.3901 89.0088 74.9855 89.0081 75.6065C89.0082 75.7045 89.0472 75.7986 89.1166 75.8679C89.1859 75.9372 89.2799 75.9762 89.378 75.9763H93.3228C93.4209 75.9762 93.5149 75.9372 93.5842 75.8679C93.6536 75.7986 93.6926 75.7045 93.6927 75.6065C93.692 74.9855 93.445 74.3901 93.0059 73.951C92.5667 73.5119 91.9714 73.2649 91.3504 73.2642Z" fill="white"/>
<path d="M19.9554 116.176H22.9781L24.4161 104.517L19.9549 104.517L19.9554 116.176Z" fill="#FFB8B8"/>
<path d="M28.8076 118.983L19.3077 118.983L19.3076 115.313L25.1371 115.312C26.1105 115.312 27.0441 115.699 27.7325 116.387C28.4209 117.076 28.8076 118.009 28.8076 118.983L28.8076 118.983Z" fill="#2F2E41"/>
<path d="M8.61387 116.176H11.6366L13.0745 104.517L8.61337 104.517L8.61387 116.176Z" fill="#FFB8B8"/>
<path d="M17.4662 118.983L7.96623 118.983L7.96606 115.313L13.7956 115.312C14.769 115.312 15.7026 115.699 16.391 116.387C17.0794 117.076 17.4661 118.009 17.4662 118.983L17.4662 118.983Z" fill="#2F2E41"/>
<path d="M8.98303 81.4517C9.30869 81.2422 9.58446 80.9639 9.79092 80.6363C9.99737 80.3087 10.1295 79.9398 10.178 79.5557C10.2264 79.1715 10.1901 78.7814 10.0715 78.4128C9.95288 78.0442 9.7549 77.706 9.49148 77.4222L11.4818 49.1775L5.74866 49.7335L5.59119 77.3936C5.14374 77.8677 4.88575 78.4895 4.86611 79.1412C4.84647 79.7928 5.06655 80.429 5.48464 80.9292C5.90273 81.4294 6.48979 81.7589 7.13457 81.8552C7.77935 81.9515 8.43705 81.8079 8.98304 81.4517H8.98303Z" fill="#FFB8B8"/>
<path d="M20.0455 110.304C19.7743 110.303 19.5127 110.203 19.3098 110.023C19.107 109.843 18.9768 109.595 18.9437 109.326L17.1867 94.6308C17.162 94.4239 17.0632 94.2329 16.9086 94.0932C16.754 93.9534 16.5541 93.8743 16.3458 93.8704C16.1374 93.8666 15.9347 93.9383 15.7751 94.0722C15.6154 94.2062 15.5097 94.3934 15.4774 94.5993L13.264 108.67C13.224 108.931 13.0913 109.17 12.8901 109.342C12.6889 109.514 12.4327 109.608 12.168 109.607H8.58066C8.43425 109.607 8.28929 109.578 8.15413 109.521C8.01898 109.465 7.8963 109.383 7.79317 109.279C7.69003 109.175 7.60848 109.051 7.55322 108.916C7.49795 108.78 7.47006 108.635 7.47116 108.489L9.1833 77.2911C9.18393 77.0255 9.28037 76.7691 9.45491 76.5689C9.62945 76.3687 9.87036 76.2382 10.1334 76.2014L23.4458 74.2689C23.6039 74.246 23.7652 74.2575 23.9185 74.3027C24.0718 74.3478 24.2136 74.4256 24.3341 74.5306C24.4546 74.6356 24.5509 74.7654 24.6166 74.9111C24.6823 75.0568 24.7158 75.215 24.7147 75.3748L24.4824 109.043C24.4805 109.327 24.3698 109.599 24.1733 109.804C23.9767 110.009 23.7092 110.13 23.4257 110.144L20.0981 110.302C20.0805 110.303 20.063 110.304 20.0455 110.304Z" fill="#2F2E41"/>
<path d="M13.1437 78.4697C11.8633 78.4648 10.5932 78.2387 9.38975 77.8013C9.18573 77.7262 9.00854 77.5923 8.8805 77.4166C8.75247 77.2408 8.67933 77.0311 8.6703 76.8139C8.55545 74.2653 7.88357 61.1469 5.92751 53.1449C5.54732 51.5752 5.6403 49.9281 6.19474 48.4112C6.74918 46.8942 7.74027 45.5753 9.04308 44.6208C9.1483 44.5451 9.25557 44.4709 9.36489 44.398C10.4962 43.6449 11.8014 43.1938 13.1563 43.0876C14.5112 42.9814 15.8707 43.2236 17.1056 43.7913C18.3813 44.3621 19.4897 45.2498 20.3253 46.37C21.161 47.4902 21.6961 48.8056 21.8797 50.1911L25.0695 73.8728C25.09 74.0209 25.0803 74.1715 25.0408 74.3157C25.0013 74.4598 24.933 74.5945 24.84 74.7115C24.749 74.8276 24.6353 74.9241 24.5059 74.995C24.3765 75.0659 24.234 75.1097 24.0871 75.1239C22.9818 75.2342 20.6895 75.6625 17.7556 77.2926C16.3448 78.0741 14.7566 78.4795 13.1437 78.4697Z" fill="#3F3D56"/>
<path d="M9.24408 58.8394L3.99478 57.4162C3.71096 57.3389 3.4694 57.1522 3.32307 56.897C3.17675 56.6418 3.13763 56.339 3.21429 56.055L5.05964 49.2489C5.25728 48.5198 5.71786 47.8898 6.35255 47.4802C6.98724 47.0706 7.7511 46.9106 8.49683 47.0308C9.24256 47.1511 9.91735 47.5432 10.3911 48.1316C10.8648 48.7199 11.1039 49.4628 11.0624 50.2171L10.6423 57.8297C10.6332 57.9948 10.5873 58.1557 10.508 58.3008C10.4288 58.4458 10.3181 58.5714 10.1841 58.6681C10.05 58.7649 9.89608 58.8305 9.73345 58.8602C9.57082 58.8898 9.40363 58.8827 9.24408 58.8394Z" fill="#3F3D56"/>
<path d="M15.0875 40.5757C18.4319 40.5757 21.1431 37.8645 21.1431 34.5201C21.1431 31.1757 18.4319 28.4645 15.0875 28.4645C11.7431 28.4645 9.03186 31.1757 9.03186 34.5201C9.03186 37.8645 11.7431 40.5757 15.0875 40.5757Z" fill="#FFB8B8"/>
<path d="M37.0318 46.4175C37.0015 46.5505 36.9818 46.6857 36.9728 46.8219L26.3814 52.932L23.8071 51.4499L21.0626 55.0428L26.5699 58.9681L38.6531 49.4356C39.1459 49.618 39.6826 49.646 40.1917 49.5159C40.7008 49.3859 41.1583 49.1039 41.5032 48.7075C41.8482 48.3111 42.0643 47.8191 42.1228 47.2969C42.1813 46.7747 42.0795 46.247 41.8308 45.7841C41.5822 45.3212 41.1985 44.9449 40.7308 44.7054C40.263 44.4659 39.7335 44.3744 39.2125 44.4431C38.6916 44.5119 38.2039 44.7376 37.8143 45.0903C37.4248 45.443 37.1518 45.9059 37.0318 46.4175V46.4175Z" fill="#FFB8B8"/>
<path d="M25.5036 53.2269L20.9413 56.1876C20.6944 56.3475 20.3941 56.4028 20.1064 56.3416C19.8187 56.2803 19.5671 56.1075 19.4066 55.8609L15.5678 49.9455C15.1566 49.3119 14.9945 48.5484 15.1128 47.8024C15.2312 47.0563 15.6215 46.3805 16.2087 45.9053C16.7958 45.43 17.5381 45.1889 18.2924 45.2286C19.0467 45.2682 19.7597 45.5857 20.2938 46.1199L25.6843 51.5117C25.8012 51.6286 25.8905 51.7701 25.9456 51.9259C26.0008 52.0818 26.0205 52.248 26.0031 52.4124C25.9858 52.5768 25.932 52.7352 25.8456 52.8761C25.7591 53.0171 25.6423 53.1369 25.5036 53.2269Z" fill="#3F3D56"/>
<path d="M10.8022 39.311C11.9319 40.5143 14.0299 39.8683 14.1771 38.2244C14.1887 38.0967 14.1879 37.9683 14.1747 37.8408C14.0986 37.1126 13.6779 36.4515 13.7787 35.6826C13.8015 35.4912 13.8728 35.3088 13.9858 35.1527C14.8861 33.9472 16.9993 35.6919 17.8489 34.6006C18.3699 33.9315 17.7575 32.8779 18.1573 32.13C18.6849 31.1429 20.2478 31.6299 21.2278 31.0893C22.3183 30.4878 22.2531 28.8148 21.5352 27.7971C20.6598 26.5561 19.125 25.8938 17.6093 25.7984C16.0935 25.703 14.5883 26.1127 13.1732 26.6642C11.5654 27.2907 9.97102 28.1567 8.9816 29.5704C7.77836 31.2897 7.66257 33.6011 8.26433 35.6114C8.63039 36.8344 9.8797 38.3283 10.8022 39.311Z" fill="#2F2E41"/>
<path d="M34.7642 119H0.246554C0.181164 119 0.118452 118.974 0.0722139 118.928C0.025976 118.882 0 118.819 0 118.754C0 118.688 0.025976 118.625 0.0722139 118.579C0.118452 118.533 0.181164 118.507 0.246554 118.507H34.7642C34.8296 118.507 34.8923 118.533 34.9385 118.579C34.9848 118.625 35.0107 118.688 35.0107 118.754C35.0107 118.819 34.9848 118.882 34.9385 118.928C34.8923 118.974 34.8296 119 34.7642 119Z" fill="#3F3D56"/>
</g>
<defs>
<clipPath id="clip0">
<rect width="225.157" height="119" fill="white"/>
</clipPath>
</defs>
</svg>
