<svg width="1056" height="269" viewBox="0 0 1056 269" fill="none" xmlns="http://www.w3.org/2000/svg">
<path d="M173.518 193.43H51.4988L23.8059 268.734H0L101.71 0H123.307L225.016 268.734H201.388L173.518 193.43ZM58.5166 174.05H166.323L112.414 27.6855L58.5166 174.05Z" fill="#212121"/>
<path d="M316.707 268.734H294V0H316.707V268.734Z" fill="#212121"/>
<path d="M488.707 268.734H466V0H488.707V268.734Z" fill="#212121"/>
<path d="M474.367 127V140.663H310V127L474.367 127Z" fill="#212121"/>
<path d="M970.63 268.98H949.953V108.961H970.63V268.98Z" fill="#212121"/>
<path d="M970.571 108.321L954.92 121.832L864 16.5112L879.651 2.99997L970.571 108.321Z" fill="#212121"/>
<path d="M968.49 121.361L952.65 108.071L1040.16 3.7804L1056 17.071L968.49 121.361Z" fill="#212121"/>
<path d="M675.107 0.0151002C672.622 0.160583 670.191 0.802109 667.959 1.9016L571.155 47.9044C566.1 50.3015 562.426 54.862 561.166 60.2965L537.471 163.543C536.342 168.389 537.254 173.469 540.077 177.623C540.407 178.125 540.755 178.609 541.119 179.077L608 261.927C611.536 266.254 616.843 268.737 622.436 268.711H729.707C735.318 268.72 740.634 266.115 744.16 261.849L811.006 178.981C814.516 174.655 815.827 168.943 814.481 163.526L790.629 60.1926C789.37 54.7581 785.678 50.1977 780.641 47.8006L683.993 1.91025C681.208 0.54175 678.123 -0.109802 675.021 0.0151002H675.107Z" fill="#212121"/>
<path d="M675.994 35.201C672.659 35.4347 670.131 38.2818 670.305 41.6048V43.2316C670.461 45.0749 670.739 46.9008 671.104 48.7094C671.636 52.1728 671.828 55.6798 671.677 59.1803C671.347 60.3313 670.687 61.3697 669.783 62.1658L669.653 64.6062C666.135 64.9004 662.644 65.4369 659.204 66.2158C644.733 69.4695 631.557 76.9463 621.386 87.7201L619.301 86.249C618.155 86.5951 616.921 86.4653 615.87 85.9028C613.051 83.8239 610.442 81.4763 608.079 78.8934C606.892 77.4806 605.625 76.1371 604.283 74.8694L602.998 73.8483C601.851 72.931 600.444 72.4031 598.976 72.3339C598.1 72.2876 597.226 72.4485 596.424 72.8035C595.623 73.1584 594.917 73.6973 594.364 74.3762C592.401 77.1194 593.044 80.9183 595.789 82.8827L596.987 83.8346C598.53 84.8574 600.131 85.7906 601.782 86.6297C604.857 88.3345 607.758 90.3335 610.45 92.6873C611.139 93.6659 611.539 94.8169 611.606 96.0103L613.499 97.741C603.276 113.023 599.081 131.534 601.704 149.715L599.272 150.407C598.638 151.411 597.795 152.268 596.787 152.899C593.394 153.802 589.921 154.373 586.417 154.604C584.557 154.642 582.701 154.786 580.858 155.037L579.32 155.383H579.147C578.08 155.531 577.075 155.97 576.244 156.653C575.413 157.336 574.788 158.235 574.44 159.25C574.091 160.266 574.033 161.358 574.27 162.404C574.508 163.451 575.032 164.412 575.785 165.179C576.545 165.942 577.503 166.48 578.552 166.732C579.602 166.985 580.7 166.941 581.726 166.607H581.839L583.403 166.434C585.166 165.915 586.903 165.274 588.597 164.547C591.854 163.249 595.233 162.254 598.69 161.605C599.888 161.674 601.035 162.081 602.008 162.773L604.613 162.341C610.259 179.795 622.124 194.584 637.967 203.904L636.907 206.111C637.394 207.123 637.576 208.248 637.429 209.365C635.995 212.67 634.241 215.838 632.191 218.814C631.067 220.291 630.028 221.831 629.082 223.427L628.343 224.984C627.808 225.91 627.539 226.965 627.568 228.034C627.596 229.102 627.92 230.141 628.504 231.038C629.088 231.934 629.91 232.652 630.878 233.112C631.845 233.573 632.922 233.758 633.989 233.647C635.058 233.527 636.073 233.114 636.921 232.454C637.769 231.794 638.417 230.913 638.792 229.908L639.513 228.437C640.173 226.706 640.729 224.941 641.181 223.158C642.718 219.377 643.552 215.318 645.654 212.809C646.341 212.165 647.207 211.743 648.138 211.597L649.441 209.235C666.615 215.811 685.618 215.858 702.825 209.365L703.98 211.571C705.161 211.744 706.221 212.393 706.933 213.345C708.566 216.443 709.886 219.688 710.894 223.037C711.353 224.831 711.916 226.596 712.579 228.325L713.3 229.796C713.679 230.797 714.328 231.673 715.177 232.329C716.025 232.985 717.039 233.394 718.106 233.511C719.173 233.629 720.252 233.45 721.223 232.994C722.195 232.538 723.021 231.824 723.61 230.929C724.193 230.03 724.515 228.987 724.539 227.916C724.564 226.845 724.29 225.789 723.749 224.863L722.993 223.306C722.046 221.716 721.008 220.181 719.884 218.711C717.886 215.837 716.166 212.774 714.672 209.564C714.533 208.977 714.513 208.368 714.615 207.773C714.716 207.178 714.936 206.61 715.263 206.102C714.892 205.347 714.57 204.57 714.299 203.774C730.107 194.385 741.92 179.544 747.505 162.064L749.971 162.496C750.857 161.692 752.021 161.268 753.211 161.302C756.659 161.96 760.038 163.033 763.304 164.244C764.998 165.023 766.735 165.681 768.498 166.235C768.915 166.347 769.523 166.442 769.992 166.555H770.105C771.13 166.885 772.227 166.925 773.274 166.67C774.321 166.415 775.276 165.876 776.033 165.113C776.79 164.35 777.32 163.392 777.563 162.346C777.806 161.3 777.753 160.208 777.41 159.191C777.059 158.174 776.431 157.275 775.597 156.593C774.762 155.912 773.754 155.475 772.685 155.331L771 154.933C769.157 154.682 767.301 154.538 765.441 154.5C761.932 154.275 758.457 153.704 755.07 152.796C754.028 152.216 753.159 151.35 752.568 150.303L750.223 149.611C752.724 131.438 748.44 112.983 738.185 97.7497L740.235 95.8632C740.148 94.6776 740.539 93.5007 741.312 92.5921C743.978 90.3075 746.871 88.2912 749.911 86.5692C751.561 85.7297 753.162 84.7965 754.705 83.774L755.973 82.7529C756.907 82.1755 757.658 81.3466 758.138 80.3619C758.619 79.3773 758.809 78.2773 758.689 77.189C758.568 76.1008 758.14 75.069 757.455 74.2128C756.77 73.3567 755.856 72.7112 754.818 72.3512C753.781 71.9916 752.663 71.9316 751.593 72.1781C750.524 72.4247 749.546 72.9677 748.773 73.7444L747.487 74.7656C746.146 76.0335 744.879 77.377 743.691 78.7895C741.398 81.4029 738.862 83.7827 736.109 85.9115C734.998 86.3622 733.782 86.4941 732.6 86.2922L730.402 87.8499C717.721 74.6098 700.636 66.3888 682.326 64.7446C682.326 63.8793 682.213 62.5812 682.196 62.1745C681.214 61.4995 680.528 60.4697 680.302 59.3015C680.182 55.8067 680.403 52.3086 680.962 48.8565C681.336 47.0393 681.596 45.222 681.761 43.3788V41.648C681.935 38.325 679.416 35.478 676.072 35.2443L675.994 35.201ZM668.75 79.9058L667.013 110.133H666.882C666.796 112.002 665.692 113.595 663.999 114.495C662.305 115.394 660.299 115.126 658.787 114.027L633.902 96.4603C641.823 88.7094 651.759 83.3174 662.592 80.8924C664.624 80.4597 666.674 80.1308 668.733 79.9058H668.75ZM683.238 79.9058C696.31 81.5241 708.479 87.374 717.894 96.5555L693.244 114.01C691.724 115.221 689.639 115.464 687.876 114.633C686.113 113.802 684.984 112.037 684.958 110.098L683.238 79.9058ZM624.869 107.831L647.626 128.063V128.193C649.042 129.422 649.658 131.335 649.241 133.16C648.824 134.986 647.417 136.432 645.619 136.925V137.011L616.418 145.379C614.973 132.272 617.949 119.058 624.878 107.823L624.869 107.831ZM726.954 107.831C733.868 119.038 736.925 132.183 735.657 145.276L706.412 136.882V136.769C704.588 136.276 703.198 134.831 702.79 133.005C702.382 131.179 702.99 129.284 704.405 128.037L726.989 107.9L726.954 107.831ZM671.33 129.638H680.641L686.33 136.838L684.263 145.838L675.898 149.845L667.516 145.838L665.545 136.838L671.33 129.638ZM701.157 154.197C701.548 154.154 702.025 154.154 702.329 154.197L732.443 159.26C728.1 171.721 719.527 182.365 708.34 189.487L696.701 161.415C696.381 160.662 696.247 159.843 696.311 159.027C696.375 158.212 696.634 157.424 697.068 156.729C697.501 156.035 698.095 155.454 698.801 155.036C699.507 154.618 700.303 154.375 701.122 154.327L701.157 154.197ZM650.579 154.327C652.281 154.353 653.854 155.227 654.783 156.646C655.712 158.066 655.86 159.848 655.191 161.406V161.518L643.622 189.366C632.547 182.296 624.139 171.782 619.666 159.45L649.519 154.405C649.849 154.371 650.188 154.371 650.527 154.405L650.579 154.327ZM675.803 166.442C676.752 166.413 677.69 166.646 678.514 167.117C679.338 167.587 680.014 168.277 680.467 169.108H680.58L695.294 195.562L689.414 197.293C678.591 199.759 667.291 199.179 656.772 195.614L671.538 169.16C672.433 167.602 674.083 166.65 675.881 166.607L675.803 166.442Z" fill="white" stroke="white" stroke-width="0.11"/>
</svg>
